<?xml version="1.0" encoding="utf-8"?>
<!-- Generator: Adobe Illustrator 16.0.0, SVG Export Plug-In . SVG Version: 6.00 Build 0)  -->
<!DOCTYPE svg PUBLIC "-//W3C//DTD SVG 1.1//EN" "http://www.w3.org/Graphics/SVG/1.1/DTD/svg11.dtd">
<svg version="1.1" id="Layer_1" xmlns="http://www.w3.org/2000/svg" xmlns:xlink="http://www.w3.org/1999/xlink" x="0px" y="0px"
	 width="250px" height="220px" viewBox="0 0 250 220" enable-background="new 0 0 250 220" xml:space="preserve">
<g>
	<rect x="5" y="194.629" fill="#AF8B18" width="135.243" height="1.161"/>
	<rect x="151.06" y="194.629" fill="#AF8B18" width="93.94" height="1.161"/>
	<g>
		<path d="M12.794,184.238v-4.938l-0.212-1.795c-0.59-0.165-1.11-0.265-1.559-0.265c-1.159,0-2.056,0.451-2.646,1.351
			c-0.519,0.779-0.782,1.843-0.782,3.142c0,2.344,0.947,3.944,2.483,3.944C11.117,185.678,12.016,185.208,12.794,184.238
			 M14.45,176.843l-0.238,2.315v3.78c-0.07,0.214-0.281,0.712-0.663,1.442c-1.013,1.678-2.289,2.506-3.803,2.506
			c-1.064,0-1.914-0.401-2.6-1.229c-0.732-0.923-1.088-2.079-1.038-3.499c0.116-3.593,2.148-5.765,5.432-5.765
			C12.607,176.395,13.577,176.535,14.45,176.843"/>
		<path d="M23.338,185.588v-8.132h-1.701c-2.199,0-3.428,1.726-3.428,4.467c0,2.436,0.899,3.665,2.67,3.665H23.338z M29.598,186.722
			h-4.796c-0.262,2.765-1.726,4.51-4.441,5.244l-0.38-0.613c1.182-0.449,2.054-1.182,2.647-2.197
			c0.448-0.759,0.686-1.561,0.709-2.434h-2.814c-1.111,0-2.031-0.356-2.715-1.063c-0.735-0.805-1.088-1.893-1.088-3.263
			c0-1.725,0.473-3.095,1.396-4.136c0.944-1.038,2.173-1.561,3.685-1.561h3.001v8.889h4.796V186.722z"/>
		<path d="M43.475,186.722H28.987v-1.134h13.07v-4.47c0-2.009-1.749-3.237-4.467-3.237h-7.254c2.388-2.432,4.276-4.559,5.717-6.428
			h1.892l-2.363,2.177l-2.741,3.069h5.27c1.584,0,2.86,0.38,3.852,1.111c1.016,0.733,1.513,1.702,1.513,2.883V186.722z"/>
		<path d="M48.629,185.822c0,3.237-1.492,5.268-4.443,6.098l-0.378-0.639c1.205-0.45,2.103-1.184,2.718-2.195
			c0.45-0.783,0.661-1.585,0.661-2.461v-6.5l-0.378-2.975l1.821-0.454V185.822z"/>
		<path d="M56.688,186.722h-2.034c-2.007,0-3.024-1.088-3.024-3.262v-8.744l-0.377-2.813l1.795-0.423v11.552
			c0,1.704,0.732,2.557,2.174,2.557h1.466V186.722z"/>
	</g>
	<rect x="56.051" y="185.562" width="3.214" height="1.16"/>
	<rect x="58.508" y="185.562" width="3.216" height="1.16"/>
	<rect x="60.965" y="185.562" width="3.215" height="1.16"/>
	<rect x="63.423" y="185.562" width="3.214" height="1.16"/>
	<rect x="65.881" y="185.562" width="3.215" height="1.16"/>
	<rect x="68.339" y="185.562" width="3.214" height="1.16"/>
	<rect x="70.798" y="185.562" width="3.215" height="1.16"/>
	<rect x="73.254" y="185.562" width="3.216" height="1.16"/>
	<rect x="75.715" y="185.562" width="3.211" height="1.16"/>
	<rect x="78.17" y="185.562" width="3.215" height="1.16"/>
	<rect x="80.631" y="185.562" width="3.214" height="1.16"/>
	<rect x="83.085" y="185.562" width="3.215" height="1.16"/>
	<rect x="85.546" y="185.562" width="3.214" height="1.16"/>
	<rect x="88.002" y="185.562" width="3.213" height="1.16"/>
	<g>
		<path d="M104,172.516c0,0.663-0.354,0.996-1.04,0.996c-0.684,0-1.015-0.333-1.015-1.019s0.331-1.04,1.015-1.04
			C103.528,171.453,104,171.925,104,172.516 M102.442,169.706c0,0.686-0.333,1.039-1.017,1.039c-0.687,0-1.039-0.354-1.039-1.039
			c0-0.712,0.353-1.063,1.039-1.063C101.969,168.643,102.442,169.138,102.442,169.706 M100.906,172.516
			c0,0.663-0.356,0.996-1.042,0.996c-0.684,0-1.039-0.333-1.039-1.019s0.354-1.04,1.039-1.04
			C100.432,171.453,100.906,171.925,100.906,172.516 M111.327,186.722h-1.465c-1.04,0-1.818-0.333-2.363-0.996
			c-0.543,0.663-1.3,0.996-2.268,0.996c-1.349,0-2.437-0.641-3.261-1.94c-0.45,1.3-1.395,1.94-2.789,1.94
			c-1.229,0-2.292-0.593-3.166-1.772c-0.142,0.354-0.333,0.659-0.592,0.921c-0.543,0.567-1.276,0.852-2.197,0.852h-2.766v-1.134
			h2.174c1.466,0,2.197-0.853,2.197-2.557l0.025-4.961l1.394-0.354v5.934c0,0.21-0.024,0.399-0.046,0.588
			c0.825,0.852,1.629,1.277,2.362,1.277c1.439,0,2.172-0.828,2.172-2.506v-4.939l1.394-0.354v6.38
			c0.828,0.947,1.68,1.419,2.531,1.419c1.417,0,2.127-0.828,2.127-2.506v-2.885l-0.401-2.975l1.819-0.451v6.404
			c0,1.652,0.731,2.484,2.198,2.484h0.921V186.722z"/>
		<path d="M120.122,179.158l-0.237-1.797c-0.59-0.164-1.11-0.259-1.559-0.259c-1.159,0-2.057,0.449-2.646,1.348
			c-0.521,0.78-0.781,1.817-0.781,3.165c0,2.338,0.945,3.973,2.457,3.973c1.984,0,2.979-1.302,2.979-3.879
			C120.334,181.073,120.261,180.222,120.122,179.158 M121.752,176.696l-0.189,2.32v3.641c0,2.715-1.583,4.064-4.75,4.064h-6.026
			v-1.134h3.664c-0.687-0.878-1.041-2.036-1.041-3.501c0-1.771,0.498-3.188,1.466-4.25c0.992-1.065,2.316-1.609,3.972-1.609
			C119.907,176.228,120.876,176.395,121.752,176.696"/>
		<path d="M130.638,185.303v-7.847h-1.699c-2.198,0-3.428,1.726-3.428,4.467c0,2.554,0.898,3.829,2.67,3.829
			C128.913,185.752,129.742,185.608,130.638,185.303 M132.104,185.822c0,3.237-1.49,5.268-4.441,6.098l-0.381-0.639
			c2.246-0.827,3.355-2.409,3.355-4.796c-1.181,0.304-2.197,0.473-3.024,0.473c-2.174,0-3.592-1.728-3.592-4.562
			c0-1.725,0.473-3.095,1.394-4.136c0.947-1.038,2.177-1.563,3.688-1.563h3.001V185.822z"/>
		<path d="M148.225,195.226c0,0.664-0.357,0.993-1.042,0.993c-0.71,0-1.062-0.329-1.062-1.016s0.352-1.041,1.062-1.041
			C147.75,194.162,148.225,194.638,148.225,195.226 M145.128,195.226c0,0.664-0.354,0.993-1.063,0.993
			c-0.685,0-1.04-0.329-1.04-1.016s0.355-1.041,1.04-1.041C144.607,194.162,145.128,194.638,145.128,195.226 M152.503,185.588
			l-0.049,1.156c-0.26,2.742-1.726,4.49-4.42,5.244l-3.592,0.098c-4.159,0-6.238-2.48-6.238-7.446v-4.084h1.394v3.99
			c0,2.081,0.447,3.734,1.324,4.989c0.874,1.248,2.174,1.889,3.853,1.889l2.882-0.071c1.18-0.449,2.057-1.157,2.644-2.174
			c0.451-0.782,0.69-1.584,0.712-2.46l-2.813,0.025c-1.109,0-2.004-0.355-2.692-1.086c-0.755-0.782-1.135-1.87-1.135-3.263
			c0-1.725,0.471-3.095,1.395-4.113c0.945-1.038,2.198-1.559,3.733-1.559h1.679l-0.166,0.732h-1.726
			c-2.172,0-3.379,1.748-3.379,4.515c0,2.41,0.875,3.617,2.649,3.617H152.503z"/>
		<path d="M157.655,185.822c0,3.237-1.489,5.268-4.441,6.098l-0.381-0.639c1.208-0.45,2.104-1.184,2.721-2.195
			c0.448-0.783,0.663-1.585,0.663-2.461v-6.5l-0.381-2.975l1.819-0.454V185.822z"/>
		<path d="M165.714,186.722h-2.033c-2.006,0-3.024-1.088-3.024-3.262v-8.744l-0.378-2.813l1.798-0.423v11.552
			c0,1.704,0.732,2.557,2.174,2.557h1.464V186.722z"/>
	</g>
	<rect x="165.076" y="185.562" width="3.213" height="1.16"/>
	<rect x="167.535" y="185.562" width="3.214" height="1.16"/>
	<rect x="169.992" y="185.562" width="3.214" height="1.16"/>
	<rect x="172.452" y="185.562" width="3.214" height="1.16"/>
	<rect x="174.908" y="185.562" width="3.213" height="1.16"/>
	<rect x="177.366" y="185.562" width="3.213" height="1.16"/>
	<rect x="179.824" y="185.562" width="3.213" height="1.16"/>
	<rect x="182.282" y="185.562" width="3.214" height="1.16"/>
	<rect x="184.74" y="185.562" width="3.214" height="1.16"/>
	<rect x="187.199" y="185.562" width="3.213" height="1.16"/>
	<rect x="189.655" y="185.562" width="3.213" height="1.16"/>
	<rect x="192.115" y="185.562" width="3.213" height="1.16"/>
	<rect x="194.57" y="185.562" width="3.214" height="1.16"/>
	<rect x="197.03" y="185.562" width="3.214" height="1.16"/>
	<g>
		<path d="M217.212,185.588v-4.233c0-2.054-1.703-3.235-4.423-3.235c-2.763,0-5.267,2.481-7.489,7.469H217.212z M221.936,186.722
			h-17.862v-0.805c-0.64,0.543-1.254,0.805-1.822,0.805h-2.766v-1.134h2.176c1.466,0,2.198-0.853,2.198-2.557l0.023-4.961
			l1.395-0.354v5.436c2.008-4.158,4.7-6.238,8.035-6.238c1.581,0,2.883,0.379,3.876,1.136c0.99,0.73,1.485,1.699,1.485,2.88v4.635
			h3.262V186.722z"/>
		<path d="M226.195,172.516c0,0.663-0.354,0.996-1.04,0.996c-0.684,0-1.04-0.333-1.04-1.019s0.356-1.04,1.04-1.04
			C225.724,171.453,226.195,171.928,226.195,172.516 M227.589,183.46c0,2.056-1.182,3.262-3.05,3.262h-3.164v-1.134h2.574
			c1.489,0,2.222-0.853,2.222-2.557v-2.951l-0.377-2.93l1.795-0.454V183.46z"/>
		<path d="M239.333,183.46c0,1.869-1.109,3.259-2.976,3.259h-5.955l0.544-1.131h4.775c0.257,0,0.493-0.049,0.73-0.121l-4.893-8.771
			l-1.701-2.194h1.914l5.624,10.303c0.354-0.424,0.521-1.017,0.521-1.771v-8.154l-0.4-2.978l1.816-0.449V183.46z M233.356,173.014
			h-4.301V172.4h0.803v-0.402c0-1.299,0.521-1.961,1.583-1.961c0.496,0,0.946,0.189,1.348,0.591l-0.261,0.376
			c-0.259-0.21-0.542-0.328-0.803-0.328c-0.757,0-1.135,0.473-1.135,1.44v0.284h1.326l0.611-0.098L233.356,173.014z"/>
	</g>
	<polygon points="243.874,171.453 243.661,174.269 243.661,186.722 242.243,186.722 242.243,174.269 241.912,171.621 	"/>
	<g>
		<path d="M9.921,209.229c0.397,0,0.811,0.009,1.237,0.026c0.428,0.013,0.84,0.021,1.238,0.021c0.428,0,0.856-0.003,1.284-0.014
			c0.429-0.005,0.856-0.017,1.284-0.033l-2.544-5.823L9.921,209.229z M20.076,216.362c-0.213-0.031-0.415-0.046-0.606-0.046h-0.607
			h-0.609c-0.19,0-0.395,0.015-0.606,0.046c-0.106-0.352-0.252-0.776-0.435-1.273c-0.184-0.495-0.388-1.016-0.609-1.56
			c-0.222-0.542-0.446-1.092-0.677-1.649c-0.229-0.557-0.443-1.089-0.642-1.596c-0.49-0.015-0.985-0.025-1.49-0.031
			c-0.505-0.01-1.009-0.015-1.513-0.015c-0.474,0-0.94,0.005-1.4,0.015c-0.457,0.006-0.923,0.017-1.397,0.031
			c-0.491,1.194-0.932,2.329-1.33,3.406s-0.697,1.969-0.894,2.672c-0.261-0.031-0.542-0.046-0.848-0.046
			c-0.307,0-0.589,0.015-0.85,0.046c1.239-2.675,2.446-5.335,3.624-7.981c1.176-2.641,2.361-5.333,3.555-8.068h0.433
			c0.369,0.884,0.766,1.846,1.193,2.874c0.428,1.033,0.865,2.078,1.307,3.132c0.444,1.054,0.886,2.104,1.33,3.142
			c0.444,1.037,0.86,2.008,1.249,2.9c0.39,0.893,0.742,1.692,1.055,2.395C19.623,215.461,19.879,215.996,20.076,216.362"/>
		<path d="M23.711,203.981c-0.009-0.611-0.019-1.218-0.035-1.812c-0.015-0.599-0.033-1.166-0.058-1.711
			c-0.023-0.543-0.048-1.004-0.08-1.387c0.426,0.077,0.772,0.115,1.031,0.115c0.26,0,0.603-0.038,1.032-0.115
			c-0.03,0.383-0.058,0.844-0.079,1.387c-0.024,0.545-0.043,1.112-0.058,1.711c-0.016,0.594-0.026,1.2-0.035,1.812
			c-0.008,0.61-0.013,1.178-0.013,1.698v4.146c0,0.521,0.004,1.086,0.013,1.699c0.009,0.607,0.02,1.214,0.035,1.808
			c0.015,0.599,0.033,1.163,0.058,1.699c0.021,0.535,0.049,0.979,0.079,1.33c-0.353-0.031-0.694-0.049-1.032-0.049
			c-0.335,0-0.68,0.018-1.031,0.049c0.032-0.352,0.057-0.795,0.08-1.33c0.024-0.536,0.043-1.101,0.058-1.699
			c0.016-0.594,0.026-1.2,0.035-1.808c0.007-0.613,0.012-1.178,0.012-1.699v-4.146C23.723,205.159,23.719,204.592,23.711,203.981"/>
	</g>
	<rect x="29.638" y="210.307" width="5.708" height="1.423"/>
	<g>
		<path d="M41.975,209.229c0.397,0,0.81,0.009,1.239,0.026c0.426,0.013,0.839,0.021,1.238,0.021c0.426,0,0.855-0.003,1.283-0.014
			c0.427-0.005,0.856-0.017,1.284-0.033l-2.545-5.823L41.975,209.229z M52.134,216.362c-0.214-0.031-0.418-0.046-0.609-0.046h-0.609
			h-0.606c-0.193,0-0.395,0.015-0.608,0.046c-0.107-0.352-0.253-0.776-0.438-1.273c-0.181-0.495-0.386-1.016-0.605-1.56
			c-0.223-0.542-0.448-1.092-0.677-1.649c-0.231-0.557-0.444-1.089-0.642-1.596c-0.489-0.015-0.988-0.025-1.492-0.031
			c-0.502-0.01-1.008-0.015-1.513-0.015c-0.474,0-0.94,0.005-1.398,0.015c-0.459,0.006-0.926,0.017-1.399,0.031
			c-0.49,1.194-0.932,2.329-1.328,3.406c-0.4,1.077-0.696,1.969-0.896,2.672c-0.262-0.031-0.544-0.046-0.851-0.046
			c-0.305,0-0.586,0.015-0.847,0.046c1.238-2.675,2.446-5.335,3.624-7.981c1.176-2.641,2.361-5.333,3.553-8.068h0.437
			c0.367,0.884,0.764,1.846,1.191,2.874c0.43,1.033,0.864,2.078,1.307,3.132c0.444,1.054,0.889,2.104,1.331,3.142
			c0.442,1.037,0.859,2.008,1.25,2.9c0.389,0.893,0.74,1.692,1.054,2.395C51.678,215.461,51.934,215.996,52.134,216.362"/>
		<path d="M61.993,207.314c-0.447-0.587-1.057-0.881-1.835-0.881c-1.071,0-1.855,0.329-2.351,0.986
			c-0.496,0.658-0.743,1.583-0.743,2.773v1.948c0,0.69,0.01,1.413,0.032,2.17c0.024,0.758,0.073,1.439,0.15,2.051
			c-0.354-0.031-0.698-0.049-1.032-0.049c-0.337,0-0.681,0.018-1.032,0.049c0.075-0.611,0.127-1.293,0.149-2.051
			c0.021-0.757,0.034-1.479,0.034-2.17v-2.384c0-0.687-0.013-1.411-0.034-2.166c-0.022-0.757-0.074-1.463-0.149-2.123
			c0.428,0.079,0.771,0.116,1.032,0.116c0.122,0,0.255-0.011,0.4-0.034c0.146-0.026,0.317-0.047,0.516-0.082
			c-0.045,0.611-0.066,1.226-0.066,1.835h0.043c0.43-0.654,0.944-1.164,1.542-1.522c0.596-0.36,1.31-0.539,2.139-0.539
			c0.427,0,0.862,0.061,1.3,0.182c0.436,0.124,0.831,0.332,1.183,0.63c0.354,0.3,0.639,0.706,0.863,1.216
			c0.222,0.515,0.335,1.166,0.335,1.96c0,0.659-0.018,1.336-0.047,2.031c-0.03,0.696-0.044,1.431-0.044,2.213v1.489
			c0,0.245,0.001,0.487,0.01,0.723c0.005,0.236,0.02,0.461,0.034,0.677c-0.308-0.031-0.636-0.049-0.976-0.049
			c-0.324,0-0.641,0.018-0.95,0.049c0.031-0.795,0.065-1.612,0.102-2.454c0.039-0.84,0.059-1.704,0.059-2.591v-1.396
			C62.657,208.774,62.435,207.905,61.993,207.314"/>
		<path d="M69.089,214.732c0.16,0.185,0.353,0.356,0.572,0.518c0.223,0.159,0.475,0.297,0.758,0.401
			c0.281,0.108,0.584,0.16,0.906,0.16c0.289,0,0.568-0.046,0.836-0.138c0.268-0.09,0.504-0.221,0.71-0.389s0.371-0.383,0.493-0.643
			c0.123-0.259,0.183-0.559,0.183-0.895c0-0.475-0.133-0.836-0.4-1.089c-0.268-0.253-0.599-0.46-1-0.619
			c-0.397-0.16-0.832-0.303-1.306-0.425c-0.474-0.122-0.91-0.292-1.307-0.514c-0.396-0.222-0.729-0.519-0.997-0.884
			c-0.269-0.365-0.401-0.875-0.401-1.515c0-0.504,0.083-0.965,0.25-1.389c0.169-0.417,0.414-0.782,0.735-1.088
			c0.321-0.305,0.717-0.547,1.192-0.721c0.474-0.177,1.017-0.264,1.626-0.264c0.566,0,1.044,0.075,1.434,0.227
			c0.391,0.153,0.76,0.292,1.113,0.412c-0.122,0.23-0.237,0.516-0.345,0.85c-0.106,0.337-0.175,0.597-0.205,0.781h-0.276
			c-0.124-0.367-0.36-0.698-0.711-0.985c-0.352-0.294-0.788-0.435-1.308-0.435c-0.229,0-0.458,0.037-0.688,0.114
			c-0.229,0.076-0.435,0.19-0.617,0.341c-0.185,0.152-0.337,0.353-0.459,0.598c-0.123,0.243-0.183,0.534-0.183,0.87
			c0,0.493,0.134,0.867,0.4,1.135c0.269,0.271,0.6,0.48,0.998,0.631c0.397,0.155,0.835,0.284,1.307,0.402
			c0.474,0.113,0.91,0.274,1.307,0.479c0.396,0.212,0.729,0.494,0.997,0.863c0.268,0.365,0.403,0.869,0.403,1.512
			c0,0.441-0.096,0.88-0.286,1.309c-0.191,0.428-0.467,0.813-0.826,1.155c-0.36,0.343-0.791,0.611-1.296,0.804
			c-0.502,0.192-1.077,0.285-1.719,0.285c-0.704,0-1.293-0.068-1.766-0.207c-0.475-0.134-0.872-0.297-1.193-0.481
			c0.092-0.195,0.187-0.47,0.288-0.812c0.099-0.345,0.148-0.63,0.148-0.86h0.275C68.81,214.384,68.927,214.551,69.089,214.732"/>
		<path d="M83.651,210.883c-0.34,0.061-0.688,0.124-1.036,0.195c-0.351,0.067-0.697,0.156-1.04,0.266
			c-0.342,0.104-0.645,0.25-0.912,0.432c-0.265,0.185-0.479,0.415-0.638,0.688c-0.16,0.275-0.24,0.627-0.24,1.055
			c0,0.719,0.206,1.261,0.616,1.629c0.411,0.367,0.867,0.55,1.367,0.55c0.581,0,1.109-0.158,1.588-0.48
			c0.477-0.322,0.848-0.697,1.105-1.124l0.091-3.441C84.295,210.744,83.994,210.822,83.651,210.883 M80.792,205.517
			c0.582-0.185,1.179-0.274,1.79-0.274c0.55,0,1.055,0.081,1.516,0.238c0.458,0.161,0.851,0.393,1.176,0.691
			c0.326,0.294,0.582,0.657,0.768,1.078c0.185,0.417,0.276,0.88,0.276,1.381c0,0.876-0.014,1.742-0.044,2.605
			c-0.031,0.865-0.045,1.781-0.045,2.739c0,0.187,0.004,0.38,0.011,0.587c0.007,0.205,0.041,0.387,0.103,0.55
			c0.062,0.162,0.149,0.294,0.263,0.402c0.117,0.108,0.288,0.156,0.516,0.156c0.078,0,0.158,0,0.242-0.009
			c0.084-0.008,0.164-0.033,0.242-0.078v0.502c-0.169,0.077-0.38,0.138-0.633,0.184c-0.25,0.044-0.53,0.069-0.837,0.069
			c-0.495,0-0.875-0.126-1.138-0.38c-0.264-0.25-0.418-0.575-0.467-0.974c-0.547,0.554-1.087,0.957-1.621,1.216
			c-0.534,0.259-1.188,0.389-1.965,0.389c-0.383,0-0.756-0.052-1.12-0.159c-0.365-0.108-0.69-0.284-0.973-0.529
			c-0.28-0.242-0.508-0.537-0.684-0.881c-0.177-0.346-0.262-0.737-0.262-1.181c0-0.916,0.283-1.63,0.857-2.131
			c0.571-0.506,1.357-0.841,2.364-1.01c0.822-0.139,1.467-0.256,1.932-0.354c0.464-0.102,0.807-0.205,1.028-0.311
			c0.219-0.104,0.351-0.231,0.398-0.379c0.045-0.146,0.068-0.333,0.068-0.562c0-0.381-0.042-0.749-0.136-1.098
			c-0.089-0.354-0.238-0.659-0.436-0.919c-0.197-0.263-0.459-0.47-0.779-0.633c-0.322-0.159-0.712-0.24-1.169-0.24
			c-0.612,0-1.184,0.14-1.708,0.415c-0.527,0.276-0.923,0.657-1.182,1.146h-0.252v-1.194
			C79.58,206.051,80.212,205.699,80.792,205.517"/>
		<path d="M95.87,207.1c-0.223-0.075-0.446-0.115-0.677-0.115c-0.365,0-0.695,0.083-0.983,0.25
			c-0.293,0.171-0.537,0.396-0.736,0.678c-0.198,0.284-0.351,0.621-0.458,1.01c-0.107,0.389-0.161,0.805-0.161,1.25v2.522
			c0,1.022,0.001,1.805,0.01,2.352c0.008,0.54,0.036,0.982,0.082,1.316c-0.305-0.031-0.612-0.046-0.918-0.046
			c-0.335,0-0.657,0.015-0.962,0.046c0.045-0.521,0.072-1.229,0.08-2.122c0.008-0.896,0.011-1.99,0.011-3.291v-0.731
			c0-0.596-0.003-1.284-0.011-2.067c-0.007-0.778-0.035-1.673-0.08-2.679c0.167,0.032,0.329,0.053,0.481,0.079
			c0.151,0.023,0.313,0.034,0.481,0.034c0.138,0,0.283-0.011,0.436-0.034c0.152-0.026,0.313-0.047,0.482-0.079
			c-0.062,0.549-0.096,0.983-0.105,1.303c-0.007,0.325-0.009,0.631-0.009,0.921l0.044,0.023c0.901-1.653,1.913-2.477,3.029-2.477
			c0.136,0,0.255,0.009,0.353,0.022c0.101,0.016,0.226,0.053,0.38,0.112c-0.078,0.185-0.123,0.465-0.138,0.838
			c-0.016,0.375-0.023,0.713-0.023,1.02l-0.162,0.118C96.238,207.258,96.091,207.175,95.87,207.1"/>
		<path d="M100.18,207.592c-0.023-0.757-0.073-1.463-0.149-2.123c0.427,0.079,0.772,0.116,1.031,0.116
			c0.262,0,0.604-0.037,1.034-0.116c-0.078,0.66-0.127,1.366-0.148,2.123c-0.025,0.755-0.036,1.477-0.036,2.166v2.384
			c0,0.69,0.011,1.413,0.036,2.17c0.021,0.755,0.071,1.439,0.148,2.051c-0.353-0.031-0.697-0.046-1.034-0.046
			c-0.334,0-0.68,0.015-1.031,0.046c0.076-0.611,0.126-1.296,0.149-2.051c0.023-0.757,0.034-1.479,0.034-2.17v-2.384
			C100.214,209.068,100.203,208.347,100.18,207.592 M100.238,200.656c0.228-0.231,0.504-0.344,0.824-0.344
			c0.324,0,0.597,0.112,0.826,0.344c0.23,0.23,0.346,0.503,0.346,0.823c0,0.322-0.115,0.596-0.346,0.826
			c-0.229,0.229-0.502,0.346-0.826,0.346c-0.32,0-0.596-0.116-0.824-0.346c-0.229-0.23-0.345-0.504-0.345-0.826
			C99.893,201.159,100.009,200.887,100.238,200.656"/>
		<path d="M121.62,202.09c-0.327-0.36-0.778-0.542-1.34-0.542c-0.597,0-1.071,0.207-1.424,0.622
			c-0.35,0.412-0.527,0.921-0.527,1.535c0,0.458,0.135,0.993,0.403,1.606c0.266,0.61,0.614,1.176,1.041,1.696
			c0.779-0.489,1.365-1.061,1.756-1.711c0.389-0.647,0.583-1.262,0.583-1.846C122.112,202.901,121.946,202.448,121.62,202.09
			 M116.221,213.644c0.167,0.393,0.401,0.734,0.699,1.031c0.296,0.3,0.652,0.536,1.065,0.712c0.414,0.178,0.863,0.265,1.354,0.265
			c0.779,0,1.443-0.142,1.993-0.424c0.553-0.281,1.094-0.69,1.63-1.229c-0.779-0.916-1.523-1.825-2.227-2.727
			c-0.701-0.901-1.396-1.834-2.084-2.796c-0.842,0.501-1.499,1.052-1.973,1.649c-0.474,0.594-0.709,1.368-0.709,2.315
			C115.968,212.853,116.051,213.256,116.221,213.644 M116.987,202.994c0.177-0.412,0.42-0.776,0.736-1.089
			c0.312-0.313,0.682-0.559,1.111-0.734c0.428-0.176,0.901-0.265,1.419-0.265c0.887,0,1.617,0.219,2.191,0.654
			c0.575,0.436,0.858,1.075,0.858,1.913c0,0.431-0.098,0.845-0.297,1.241c-0.198,0.396-0.455,0.769-0.766,1.109
			c-0.315,0.345-0.655,0.659-1.023,0.941c-0.367,0.284-0.719,0.526-1.053,0.722c0.686,0.888,1.359,1.756,2.019,2.604
			c0.655,0.847,1.329,1.646,2.016,2.395c0.553-0.78,1.054-1.525,1.5-2.236c0.452-0.709,0.861-1.476,1.229-2.304
			c0.093,0.198,0.219,0.37,0.377,0.518c0.16,0.145,0.326,0.279,0.495,0.398c-0.475,0.736-0.949,1.447-1.424,2.136
			c-0.473,0.686-1.031,1.396-1.671,2.134l2.934,3.23c-0.246-0.031-0.489-0.049-0.732-0.049h-0.736h-0.655
			c-0.221,0-0.437,0.018-0.653,0.049c-0.121-0.17-0.309-0.423-0.56-0.771c-0.252-0.341-0.546-0.71-0.882-1.111
			c-0.675,0.674-1.396,1.206-2.167,1.595c-0.771,0.392-1.701,0.587-2.786,0.587c-0.596,0-1.158-0.074-1.686-0.219
			c-0.527-0.146-0.988-0.379-1.388-0.699c-0.397-0.319-0.714-0.723-0.95-1.203c-0.238-0.484-0.357-1.043-0.357-1.688
			c0-0.504,0.107-0.999,0.323-1.479c0.214-0.479,0.508-0.938,0.884-1.377c0.373-0.432,0.812-0.826,1.317-1.178
			c0.504-0.352,1.056-0.65,1.652-0.895c-0.446-0.644-0.814-1.254-1.104-1.832c-0.289-0.584-0.434-1.163-0.434-1.747
			C116.725,203.859,116.812,203.406,116.987,202.994"/>
		<path d="M139.745,209.229c0.396,0,0.809,0.009,1.237,0.026c0.427,0.013,0.839,0.021,1.239,0.021c0.427,0,0.856-0.003,1.282-0.014
			c0.43-0.005,0.855-0.017,1.286-0.033l-2.547-5.823L139.745,209.229z M149.901,216.362c-0.213-0.031-0.416-0.046-0.606-0.046
			h-0.607h-0.609c-0.191,0-0.393,0.015-0.606,0.046c-0.108-0.352-0.253-0.776-0.437-1.273c-0.183-0.495-0.385-1.016-0.604-1.56
			c-0.224-0.542-0.45-1.092-0.68-1.649c-0.229-0.557-0.444-1.089-0.642-1.596c-0.489-0.015-0.986-0.025-1.489-0.031
			c-0.505-0.01-1.009-0.015-1.515-0.015c-0.474,0-0.939,0.005-1.398,0.015c-0.458,0.006-0.925,0.017-1.397,0.031
			c-0.49,1.194-0.935,2.329-1.328,3.406c-0.401,1.077-0.697,1.969-0.897,2.672c-0.258-0.031-0.543-0.046-0.849-0.046
			c-0.305,0-0.588,0.015-0.848,0.046c1.237-2.675,2.444-5.335,3.624-7.981c1.176-2.641,2.36-5.333,3.553-8.068h0.437
			c0.367,0.884,0.765,1.846,1.191,2.874c0.428,1.033,0.861,2.078,1.31,3.132c0.441,1.054,0.886,2.104,1.329,3.142
			c0.44,1.037,0.858,2.008,1.247,2.9c0.393,0.893,0.741,1.692,1.057,2.395C149.447,215.461,149.704,215.996,149.901,216.362"/>
		<path d="M153.193,214.732c0.159,0.185,0.35,0.356,0.572,0.518c0.223,0.159,0.475,0.297,0.756,0.401
			c0.285,0.108,0.587,0.16,0.905,0.16c0.292,0,0.572-0.046,0.838-0.138c0.266-0.09,0.504-0.221,0.712-0.389
			c0.207-0.168,0.37-0.383,0.493-0.643c0.123-0.259,0.184-0.559,0.184-0.895c0-0.475-0.136-0.836-0.404-1.089
			c-0.265-0.253-0.595-0.46-0.994-0.619c-0.399-0.16-0.834-0.303-1.31-0.425c-0.473-0.122-0.91-0.292-1.307-0.514
			s-0.729-0.519-0.997-0.884s-0.4-0.875-0.4-1.515c0-0.504,0.084-0.965,0.254-1.389c0.167-0.417,0.412-0.782,0.733-1.088
			c0.317-0.305,0.717-0.547,1.191-0.721c0.473-0.177,1.015-0.264,1.629-0.264c0.563,0,1.043,0.075,1.43,0.227
			c0.393,0.153,0.762,0.292,1.115,0.412c-0.122,0.23-0.237,0.516-0.345,0.85c-0.108,0.337-0.176,0.597-0.208,0.781h-0.273
			c-0.122-0.367-0.358-0.698-0.712-0.985c-0.35-0.294-0.786-0.435-1.307-0.435c-0.229,0-0.457,0.037-0.688,0.114
			c-0.23,0.076-0.437,0.19-0.62,0.341c-0.184,0.152-0.334,0.353-0.459,0.598c-0.121,0.243-0.182,0.534-0.182,0.87
			c0,0.493,0.134,0.867,0.398,1.135c0.271,0.271,0.604,0.48,1.001,0.631c0.395,0.155,0.833,0.284,1.307,0.402
			c0.475,0.113,0.909,0.274,1.306,0.479c0.396,0.212,0.731,0.494,0.999,0.863c0.267,0.365,0.4,0.869,0.4,1.512
			c0,0.441-0.097,0.88-0.289,1.309c-0.187,0.428-0.465,0.813-0.824,1.155c-0.36,0.343-0.791,0.611-1.296,0.804
			c-0.504,0.192-1.078,0.285-1.717,0.285c-0.704,0-1.294-0.068-1.767-0.207c-0.475-0.134-0.874-0.297-1.193-0.481
			c0.092-0.195,0.185-0.47,0.286-0.812c0.101-0.345,0.148-0.63,0.148-0.86h0.277C152.913,214.384,153.032,214.551,153.193,214.732"
			/>
		<path d="M163.028,214.732c0.161,0.185,0.352,0.356,0.573,0.518c0.223,0.159,0.474,0.297,0.758,0.401
			c0.283,0.108,0.585,0.16,0.904,0.16c0.292,0,0.57-0.046,0.837-0.138c0.269-0.09,0.505-0.221,0.711-0.389
			c0.208-0.168,0.369-0.383,0.495-0.643c0.12-0.259,0.182-0.559,0.182-0.895c0-0.475-0.135-0.836-0.402-1.089
			c-0.266-0.253-0.598-0.46-0.996-0.619c-0.399-0.16-0.832-0.303-1.308-0.425c-0.474-0.122-0.908-0.292-1.308-0.514
			c-0.395-0.222-0.729-0.519-0.995-0.884c-0.27-0.365-0.403-0.875-0.403-1.515c0-0.504,0.084-0.965,0.254-1.389
			c0.167-0.417,0.412-0.782,0.734-1.088c0.318-0.305,0.718-0.547,1.191-0.721c0.475-0.177,1.016-0.264,1.629-0.264
			c0.562,0,1.041,0.075,1.431,0.227c0.392,0.153,0.761,0.292,1.115,0.412c-0.124,0.23-0.238,0.516-0.346,0.85
			c-0.108,0.337-0.177,0.597-0.206,0.781h-0.276c-0.121-0.367-0.359-0.698-0.71-0.985c-0.35-0.294-0.786-0.435-1.307-0.435
			c-0.23,0-0.459,0.037-0.688,0.114c-0.23,0.076-0.438,0.19-0.621,0.341c-0.183,0.152-0.334,0.353-0.458,0.598
			c-0.123,0.243-0.184,0.534-0.184,0.87c0,0.493,0.136,0.867,0.4,1.135c0.27,0.271,0.602,0.48,0.999,0.631
			c0.396,0.155,0.835,0.284,1.308,0.402c0.475,0.113,0.908,0.274,1.306,0.479c0.396,0.212,0.731,0.494,0.999,0.863
			c0.268,0.365,0.401,0.869,0.401,1.512c0,0.441-0.099,0.88-0.29,1.309c-0.188,0.428-0.465,0.813-0.823,1.155
			c-0.36,0.343-0.791,0.611-1.297,0.804c-0.504,0.192-1.076,0.285-1.718,0.285c-0.704,0-1.292-0.068-1.765-0.207
			c-0.476-0.134-0.874-0.297-1.194-0.481c0.093-0.195,0.187-0.47,0.287-0.812c0.101-0.345,0.148-0.63,0.148-0.86h0.275
			C162.75,214.384,162.867,214.551,163.028,214.732"/>
		<path d="M173.873,212.807c0.116,0.598,0.31,1.131,0.587,1.597c0.272,0.465,0.639,0.836,1.098,1.111
			c0.459,0.274,1.026,0.412,1.699,0.412c0.671,0,1.237-0.138,1.695-0.412c0.46-0.275,0.824-0.646,1.101-1.111
			c0.275-0.466,0.471-0.999,0.586-1.597c0.113-0.597,0.171-1.213,0.171-1.857c0-0.64-0.058-1.259-0.171-1.856
			c-0.115-0.597-0.311-1.127-0.586-1.593c-0.276-0.467-0.641-0.835-1.101-1.112c-0.458-0.276-1.024-0.413-1.695-0.413
			c-0.673,0-1.24,0.137-1.699,0.413c-0.459,0.277-0.825,0.646-1.098,1.112c-0.277,0.466-0.471,0.996-0.587,1.593
			c-0.114,0.598-0.173,1.217-0.173,1.856C173.7,211.594,173.759,212.21,173.873,212.807 M172.178,208.303
			c0.327-0.726,0.757-1.315,1.295-1.768c0.534-0.449,1.135-0.779,1.799-0.984c0.666-0.207,1.327-0.309,1.985-0.309
			c0.671,0,1.337,0.102,1.993,0.309c0.657,0.205,1.254,0.535,1.788,0.984c0.536,0.452,0.968,1.042,1.295,1.768
			c0.33,0.725,0.494,1.609,0.494,2.646c0,1.042-0.164,1.924-0.494,2.648c-0.327,0.726-0.759,1.313-1.295,1.767
			c-0.534,0.453-1.131,0.768-1.788,0.949c-0.656,0.187-1.322,0.276-1.993,0.276c-0.658,0-1.319-0.09-1.985-0.276
			c-0.664-0.182-1.265-0.496-1.799-0.949c-0.538-0.453-0.968-1.041-1.295-1.767c-0.329-0.725-0.492-1.606-0.492-2.648
			C171.686,209.912,171.849,209.027,172.178,208.303"/>
		<path d="M186.015,208.381c0.337-0.717,0.776-1.311,1.318-1.774c0.544-0.467,1.167-0.814,1.871-1.032
			c0.7-0.223,1.42-0.332,2.152-0.332c0.841,0,1.595,0.102,2.26,0.309c0.663,0.205,1.142,0.438,1.432,0.7
			c-0.104,0.227-0.201,0.469-0.286,0.722c-0.082,0.25-0.155,0.515-0.216,0.792h-0.184c-0.108-0.199-0.253-0.4-0.437-0.61
			c-0.182-0.207-0.399-0.397-0.652-0.573c-0.253-0.173-0.531-0.319-0.838-0.433c-0.306-0.117-0.643-0.174-1.01-0.174
			c-0.688,0-1.28,0.126-1.776,0.379c-0.498,0.253-0.901,0.6-1.216,1.043c-0.312,0.445-0.541,0.968-0.688,1.571
			c-0.146,0.604-0.219,1.256-0.219,1.959c0,1.576,0.338,2.767,1.011,3.566c0.671,0.804,1.658,1.207,2.955,1.207
			c0.309,0,0.622-0.046,0.942-0.128c0.32-0.086,0.636-0.2,0.938-0.345c0.309-0.145,0.594-0.319,0.862-0.518
			c0.266-0.199,0.499-0.412,0.699-0.643l0.112,0.071c-0.075,0.366-0.121,0.742-0.135,1.12c-0.459,0.37-1.029,0.684-1.709,0.942
			s-1.389,0.389-2.121,0.389c-0.657,0-1.319-0.093-1.984-0.285c-0.665-0.189-1.265-0.513-1.8-0.963
			c-0.535-0.453-0.967-1.035-1.293-1.756c-0.33-0.716-0.495-1.595-0.495-2.637C185.511,209.958,185.679,209.101,186.015,208.381"/>
		<path d="M199.233,207.592c-0.022-0.757-0.07-1.463-0.148-2.123c0.428,0.079,0.772,0.116,1.034,0.116
			c0.256,0,0.601-0.037,1.03-0.116c-0.079,0.66-0.126,1.366-0.148,2.123c-0.022,0.755-0.034,1.477-0.034,2.166v2.384
			c0,0.69,0.012,1.413,0.034,2.17c0.022,0.755,0.069,1.439,0.148,2.051c-0.353-0.031-0.695-0.046-1.03-0.046
			c-0.338,0-0.685,0.015-1.034,0.046c0.078-0.611,0.126-1.296,0.148-2.051c0.024-0.757,0.034-1.479,0.034-2.17v-2.384
			C199.268,209.068,199.258,208.347,199.233,207.592 M199.291,200.656c0.229-0.231,0.505-0.344,0.828-0.344
			c0.316,0,0.595,0.112,0.823,0.344c0.229,0.23,0.345,0.503,0.345,0.823c0,0.322-0.116,0.596-0.345,0.826
			c-0.229,0.229-0.507,0.346-0.823,0.346c-0.323,0-0.599-0.116-0.828-0.346c-0.229-0.23-0.344-0.504-0.344-0.826
			C198.947,201.159,199.062,200.887,199.291,200.656"/>
		<path d="M210.933,210.883c-0.342,0.061-0.688,0.124-1.039,0.195c-0.35,0.067-0.695,0.156-1.039,0.266
			c-0.341,0.104-0.645,0.25-0.909,0.432c-0.27,0.185-0.481,0.415-0.64,0.688c-0.161,0.275-0.24,0.627-0.24,1.055
			c0,0.719,0.205,1.261,0.614,1.629c0.41,0.367,0.87,0.55,1.369,0.55c0.578,0,1.107-0.158,1.589-0.48
			c0.477-0.322,0.847-0.697,1.104-1.124l0.094-3.441C211.576,210.744,211.275,210.822,210.933,210.883 M208.073,205.517
			c0.58-0.185,1.178-0.274,1.788-0.274c0.551,0,1.055,0.081,1.515,0.238c0.46,0.161,0.854,0.393,1.179,0.691
			c0.323,0.294,0.579,0.657,0.766,1.078c0.185,0.417,0.279,0.88,0.279,1.381c0,0.876-0.017,1.742-0.046,2.605
			c-0.03,0.865-0.047,1.781-0.047,2.739c0,0.187,0.004,0.38,0.013,0.587c0.007,0.205,0.04,0.387,0.102,0.55
			c0.062,0.162,0.15,0.294,0.267,0.402c0.113,0.108,0.284,0.156,0.515,0.156c0.074,0,0.156,0,0.24-0.009
			c0.081-0.008,0.165-0.033,0.24-0.078v0.502c-0.169,0.077-0.378,0.138-0.63,0.184c-0.252,0.044-0.531,0.069-0.837,0.069
			c-0.496,0-0.879-0.126-1.14-0.38c-0.265-0.25-0.422-0.575-0.465-0.974c-0.55,0.554-1.093,0.957-1.62,1.216
			c-0.535,0.259-1.19,0.389-1.968,0.389c-0.381,0-0.756-0.052-1.118-0.159c-0.367-0.108-0.688-0.284-0.972-0.529
			c-0.282-0.242-0.513-0.537-0.688-0.881c-0.173-0.346-0.263-0.737-0.263-1.181c0-0.916,0.285-1.63,0.856-2.131
			c0.572-0.506,1.36-0.841,2.365-1.01c0.824-0.139,1.467-0.256,1.931-0.354c0.466-0.102,0.807-0.205,1.029-0.311
			c0.223-0.104,0.354-0.231,0.399-0.379c0.047-0.146,0.071-0.333,0.071-0.562c0-0.381-0.048-0.749-0.141-1.098
			c-0.092-0.354-0.236-0.659-0.434-0.919c-0.201-0.263-0.46-0.47-0.782-0.633c-0.318-0.159-0.709-0.24-1.169-0.24
			c-0.61,0-1.18,0.14-1.707,0.415c-0.527,0.276-0.92,0.657-1.178,1.146h-0.257v-1.194
			C206.859,206.051,207.492,205.699,208.073,205.517"/>
		<path d="M220.434,202.397c-0.048,0.579-0.081,1.151-0.104,1.708c-0.024,0.559-0.05,1.119-0.079,1.687
			c0.167,0,0.479-0.006,0.941-0.011c0.456-0.009,0.952-0.028,1.487-0.059c-0.016,0.044-0.022,0.13-0.022,0.252v0.231v0.249
			c0,0.108,0.007,0.186,0.022,0.23c-0.198-0.016-0.406-0.023-0.618-0.033c-0.216-0.009-0.443-0.012-0.687-0.012h-1.124
			c-0.017,0.059-0.036,0.307-0.06,0.734c-0.021,0.427-0.043,0.936-0.059,1.523c-0.013,0.59-0.024,1.204-0.033,1.846
			c-0.01,0.64-0.012,1.213-0.012,1.72c0,0.429,0.012,0.85,0.035,1.259c0.023,0.416,0.098,0.785,0.219,1.113
			c0.124,0.328,0.306,0.593,0.551,0.793c0.244,0.195,0.596,0.298,1.053,0.298c0.124,0,0.288-0.014,0.492-0.045
			c0.205-0.032,0.389-0.07,0.54-0.116v0.548c-0.26,0.049-0.546,0.106-0.858,0.175c-0.314,0.067-0.615,0.102-0.906,0.102
			c-0.962,0-1.674-0.236-2.131-0.708c-0.46-0.476-0.688-1.172-0.688-2.088c0-0.412,0.006-0.858,0.021-1.342
			c0.014-0.481,0.033-1.008,0.059-1.578c0.021-0.578,0.039-1.213,0.057-1.906c0.016-0.693,0.021-1.471,0.021-2.327h-0.732
			c-0.124,0-0.252,0.003-0.39,0.012c-0.139,0.01-0.281,0.018-0.436,0.033c0.013-0.093,0.023-0.179,0.032-0.263
			c0.009-0.083,0.011-0.172,0.011-0.262c0-0.078-0.002-0.158-0.011-0.23c-0.009-0.078-0.02-0.155-0.032-0.231
			c0.688,0.047,1.189,0.067,1.513,0.067c-0.017-0.303-0.028-0.685-0.033-1.146c-0.008-0.457-0.029-0.933-0.059-1.422l1.901-0.801
			H220.434z"/>
		<path d="M228.561,206.365c-0.39,0.262-0.713,0.582-0.963,0.976c-0.252,0.386-0.443,0.815-0.571,1.282
			c-0.131,0.467-0.211,0.904-0.241,1.321c0.474,0.014,0.968,0.026,1.476,0.043c0.515,0.018,1.015,0.023,1.505,0.023
			c0.502,0,1.018-0.006,1.535-0.023c0.521-0.017,1.024-0.029,1.514-0.043c0-0.417-0.033-0.852-0.104-1.313
			c-0.065-0.454-0.205-0.883-0.413-1.278c-0.204-0.399-0.491-0.726-0.857-0.987c-0.37-0.259-0.85-0.391-1.445-0.391
			C229.429,205.975,228.95,206.106,228.561,206.365 M226.039,206.846c0.894-1.07,2.198-1.604,3.91-1.604
			c0.808,0,1.509,0.127,2.097,0.377c0.589,0.254,1.082,0.59,1.48,1.011c0.396,0.417,0.689,0.913,0.883,1.478
			c0.189,0.567,0.284,1.169,0.284,1.813c0,0.149-0.003,0.297-0.012,0.443c-0.006,0.147-0.019,0.296-0.033,0.449
			c-0.824-0.018-1.644-0.031-2.453-0.048c-0.81-0.016-1.628-0.021-2.452-0.021c-0.507,0-1.008,0.006-1.501,0.021
			c-0.498,0.017-0.999,0.03-1.506,0.048c-0.013,0.074-0.021,0.19-0.021,0.343v0.3c0,0.596,0.089,1.155,0.264,1.673
			c0.176,0.521,0.43,0.967,0.77,1.342c0.334,0.373,0.748,0.671,1.236,0.894c0.489,0.222,1.057,0.333,1.697,0.333
			c0.306,0,0.619-0.043,0.941-0.125c0.322-0.086,0.632-0.2,0.938-0.345c0.308-0.145,0.592-0.319,0.858-0.518
			c0.271-0.199,0.502-0.412,0.7-0.643l0.115,0.071l-0.136,1.123c-0.461,0.367-1.029,0.681-1.71,0.939
			c-0.679,0.259-1.388,0.389-2.122,0.389c-0.822,0-1.576-0.124-2.258-0.377c-0.68-0.254-1.268-0.622-1.766-1.101
			c-0.497-0.48-0.877-1.051-1.146-1.708c-0.265-0.659-0.397-1.367-0.397-2.133C224.7,209.391,225.146,207.918,226.039,206.846"/>
		<path d="M238.261,214.732c0.16,0.185,0.349,0.356,0.573,0.518c0.221,0.159,0.474,0.297,0.756,0.401
			c0.285,0.108,0.587,0.16,0.906,0.16c0.29,0,0.572-0.046,0.837-0.138c0.267-0.09,0.505-0.221,0.711-0.389
			c0.208-0.168,0.37-0.383,0.493-0.643c0.122-0.259,0.186-0.559,0.186-0.895c0-0.475-0.136-0.836-0.405-1.089
			c-0.265-0.253-0.599-0.46-0.994-0.619c-0.4-0.16-0.835-0.303-1.312-0.425c-0.471-0.122-0.908-0.292-1.305-0.514
			s-0.729-0.519-0.997-0.884s-0.4-0.875-0.4-1.515c0-0.504,0.083-0.965,0.253-1.389c0.167-0.417,0.414-0.782,0.734-1.088
			c0.317-0.305,0.716-0.547,1.191-0.721c0.473-0.177,1.015-0.264,1.628-0.264c0.563,0,1.044,0.075,1.432,0.227
			c0.39,0.153,0.761,0.292,1.113,0.412c-0.123,0.23-0.236,0.516-0.346,0.85c-0.105,0.337-0.175,0.597-0.205,0.781h-0.275
			c-0.121-0.367-0.357-0.698-0.711-0.985c-0.351-0.294-0.787-0.435-1.308-0.435c-0.228,0-0.457,0.037-0.688,0.114
			c-0.229,0.076-0.436,0.19-0.62,0.341c-0.182,0.152-0.335,0.353-0.459,0.598c-0.123,0.243-0.183,0.534-0.183,0.87
			c0,0.493,0.137,0.867,0.4,1.135c0.269,0.271,0.602,0.48,0.999,0.631c0.397,0.155,0.834,0.284,1.309,0.402
			c0.475,0.113,0.908,0.274,1.306,0.479c0.396,0.212,0.73,0.494,0.999,0.863c0.266,0.365,0.399,0.869,0.399,1.512
			c0,0.441-0.096,0.88-0.289,1.309c-0.187,0.428-0.465,0.813-0.821,1.155c-0.362,0.343-0.793,0.611-1.298,0.804
			c-0.502,0.192-1.077,0.285-1.718,0.285c-0.704,0-1.293-0.068-1.767-0.207c-0.474-0.134-0.872-0.297-1.192-0.481
			c0.092-0.195,0.187-0.47,0.287-0.812c0.1-0.345,0.148-0.63,0.148-0.86h0.275C237.982,214.384,238.101,214.551,238.261,214.732"/>
		<path fill="#AF8B18" d="M164.123,154.255c-0.474,0.229-1.043,0.041-1.273-0.429s-0.037-1.038,0.421-1.274
			c0.481-0.229,1.049-0.039,1.265,0.431C164.773,153.455,164.587,154.019,164.123,154.255 M164.14,150.422
			c0.116-0.561,0.787-1.136,1.292-1.286l-0.185,0.02l-11.448-22.962l1.796-5.376l-2.459-0.825l-2.152,6.449l11.04,22.111
			c0,0,0.456,0.895-0.165,1.199c-0.623,0.312-1.045-0.594-1.045-0.594l-11.043-22.118l-6.444-2.153l-0.818,2.461l5.381,1.795
			l11.442,22.962l-0.067,0.098c0.494-0.311,1.233-0.475,1.674-0.185c-0.812,1.086-0.646,2.281-0.42,2.73
			c1.754,3.516,7.933,0.492,6.163-3.073C166.466,151.229,165.873,150.435,164.14,150.422"/>
		<path fill="#AF8B18" d="M95.437,153.164l0.035-0.095c0.315-0.626,0.609-1.535,0.669-1.633c16.038,5.574,31.03,6.651,45.917,3.188
			c0,0,4.879-1.612,7.13-0.109C133.125,160.719,114.024,159.657,95.437,153.164 M156.558,152.546c-0.3-0.637-0.425-0.91-0.77-1.654
			c0,0-0.277-0.633-0.603-1.326c0.098-0.137,0.176-0.254,0.256-0.407c1.015-1.963-2.32-6.155-1.721-4.79
			c0.531,1.175,1.518,3.209-0.777,4.137c-2.524,1.129-1.096,2.399-0.737,2.54c0.141,0.051,0.433,0.156,0.83,0.138
			c0.643,0.605,1.303,2.177,2.368,4.48c0.52,1.111-1.901,2.899-3.187,0.098c-0.015-0.022-0.028-0.034-0.051-0.063
			c0.022-0.006,0.036-0.014,0.06-0.017c-1.434-6.481-10.528-3.109-10.528-3.109c-13.604,3.167-28.441,2.443-43.393-2.725
			l-1.317,0.271c0,0,0.688-0.846,0.958-1.52c1.742-1.248,1.509-6.154,1.218-4.749c-0.26,1.267-0.661,3.491-3.073,2.888
			c-2.698-0.568-2.29,1.305-2.076,1.63c0.072,0.114,0.246,0.351,0.533,0.555c0.254,0.657-0.461,1.909-1.747,4.51
			c-0.976,1.962-3.275,1.062-2.714-1.151l0.085-0.214l0.069,0.019l-0.049-0.059l0.372-0.825h-0.013l11.065-22.169l5.385-1.796
			l-0.836-2.459l-6.447,2.152l-11.037,22.114l-0.855,2.311c-0.04,0.057-0.069,0.111-0.089,0.18
			c-0.039,0.079-0.125,0.245-0.125,0.245l0.016,0.009c-0.436,1.183-0.341,2.641,0.151,3.463c1.722,2.845,5.482,3.067,7.079-0.036
			c0.018-0.026,0.033,0.005,0.168,0.051c19.163,6.542,36.882,7.866,54.689,1.331l0.051-0.053c0,0,0.097-0.029,0.256-0.08
			l0.565,1.428c0.6,1.189,1.9,2.157,2.916,2.24c3.237,0.247,5.462-2.347,4.02-5.444L156.558,152.546z"/>
		<path fill="#AF8B18" d="M153.56,146.196c0-0.971-0.776-1.745-1.732-1.745c-0.972,0-1.741,0.774-1.741,1.745
			c0,0.959,0.77,1.736,1.741,1.736C152.783,147.933,153.56,147.155,153.56,146.196"/>
		<path fill="#AF8B18" d="M74.769,148.531c-0.673-0.169-1.337,0.084-1.75,0.579c0.046-0.104,0.118-0.199,0.153-0.316
			c0.23-0.933-0.34-1.878-1.268-2.112c-0.943-0.231-1.895,0.333-2.118,1.269c-0.243,0.933,0.335,1.879,1.274,2.115
			c0.665,0.162,1.329-0.089,1.745-0.585c-0.055,0.107-0.126,0.202-0.156,0.318c-0.226,0.933,0.337,1.876,1.269,2.112
			c0.941,0.231,1.883-0.328,2.118-1.267C76.268,149.706,75.697,148.764,74.769,148.531"/>
		<path fill="#AF8B18" d="M79.756,146.567c1.383-2.016,0.941-3.547,0.941-3.547c-1.123-3.937-2.555-8.365-4.042-13.545l-0.393-1.274
			c-0.378-1.456,1.473-1.916,1.814-0.784c0.443,1.5,1.043,3.282,1.483,4.593c0.814,2.446,0.623,5.091,2.82,5.572
			c2.194,0.48,2.359-2.344,2.359-2.344c1.764,0.843,3.146,1.425,4.731,1.286c2.84-0.239,6.291-3.677,6.291-3.677
			c-2.786,1.875-7.456,1.586-10.159,0.55c0,0-0.021-0.008-0.026-0.014c-0.02-0.006-0.049-0.016-0.067-0.026
			c-0.047-0.012-0.118-0.037-0.182-0.07c0,0-0.015,0-0.026-0.009c-0.567-0.235-1.845-0.903-2.921-2.472
			c-0.811-1.161-1.463-2.338-2.054-4.527c-1.133-3.961-7.585-2.015-6.256,2.765c0.698,2.536,3.496,11.646,4.364,14.622
			c0,0-0.222,3.098-3.719,1.24c-2.149-1.135-1.912-3.072-1.764-4.232c0.163-1.163,1.816-2.66,1.816-2.66s-1.644-0.781-2.828,2.527
			c-0.711,1.962-3.829,2.588-5.214,2.775c1.192-0.062,3.782,0.158,5.851,2.707C74.636,148.439,78.376,148.574,79.756,146.567"/>
		<path fill="#AF8B18" d="M66.726,143.316c-0.42,0.018-0.668,0.068-0.668,0.068S66.313,143.368,66.726,143.316"/>
		<path fill="#AF8B18" d="M87.955,138.629c-0.256,1.262-0.648,3.484-3.063,2.891c-2.699-0.567-2.29,1.299-2.082,1.624
			c0.111,0.167,0.427,0.611,1.066,0.818c0.971,1.304,1.016,3.544-0.611,5.026c-1.923,1.777-4.582-0.39-5.021-0.999
			c-0.021,1.017,2.219,4.69,5.641,3.565c2.304-0.774,3.943-5.002,3.208-8.506C88.456,141.442,88.235,137.334,87.955,138.629"/>
		<path fill="#AF8B18" d="M160.865,131.253c2.043,0.852,5.943-2.822,4.632-2.105c-1.127,0.627-3.074,1.773-4.188-0.438
			c-1.304-2.37-2.43-0.959-2.581-0.55c-0.765-0.789-1.702-1.719-3.009-1.875c1.98,4.012,9.103,19.073,10.845,22.551
			c0.706-0.343,1.405-0.693,2.112-1.03c-1.891-3.841-5.803-12.184-7.964-16.626C160.774,131.199,160.813,131.229,160.865,131.253"/>
		<path fill="#AF8B18" d="M53.656,122.116c-0.455,0.233-1.019,0.053-1.262-0.423c-0.245-0.467-0.036-1.031,0.427-1.268
			c0.473-0.229,1.036-0.043,1.266,0.429C54.324,121.326,54.134,121.883,53.656,122.116 M80.461,111.374l5.367,1.797l0.818-2.459
			l-6.439-2.151l-22.112,11.031c0,0-0.895,0.451-1.197-0.156c-0.31-0.618,0.596-1.057,0.596-1.057l22.108-11.033l2.165-6.444
			l-2.466-0.819l-1.796,5.375L54.542,116.91l-0.101-0.074c0.31,0.495,0.485,1.237,0.184,1.678c-1.079-0.82-2.275-0.639-2.714-0.422
			c-3.53,1.756-0.506,7.94,3.053,6.17c0.456-0.222,1.25-0.81,1.261-2.549c0.565,0.121,1.133,0.789,1.287,1.28l-0.01-0.166
			L80.461,111.374z"/>
		<path fill="#AF8B18" d="M53.48,53.017l0.095,0.035c0.629,0.316,1.541,0.602,1.635,0.662c-5.562,16.049-6.649,31.039-3.194,45.917
			c0,0,1.619,4.888,0.115,7.127C45.922,90.703,46.99,71.602,53.48,53.017 M54.108,114.126c0.626-0.291,0.911-0.42,1.644-0.758
			c0,0,0.634-0.278,1.325-0.601c0.136,0.089,0.259,0.17,0.426,0.25c1.951,1.013,6.136-2.324,4.772-1.715
			c-1.172,0.531-3.201,1.514-4.137-0.782c-1.131-2.527-2.387-1.096-2.529-0.733c-0.053,0.13-0.165,0.433-0.148,0.823
			c-0.597,0.647-2.169,1.308-4.476,2.37c-1.115,0.519-2.892-1.9-0.095-3.193c0.022-0.015,0.035-0.032,0.058-0.04
			c0.007,0.014,0.011,0.031,0.026,0.046c6.469-1.428,3.106-10.521,3.106-10.521c-3.172-13.604-2.456-28.442,2.717-43.39l-0.276-1.32
			c0,0,0.852,0.686,1.526,0.95c1.244,1.756,6.154,1.522,4.749,1.225c-1.261-0.261-3.497-0.661-2.893-3.064
			c0.568-2.708-1.302-2.288-1.627-2.081c-0.12,0.073-0.353,0.241-0.558,0.536c-0.661,0.26-1.911-0.453-4.502-1.747
			c-1.959-0.977-1.074-3.285,1.142-2.721l0.218,0.092l-0.021,0.062l0.06-0.049l0.834,0.37l22.166,11.054l1.808,5.376l2.446-0.813
			L79.721,57.3L57.6,46.269l-2.312-0.872V45.4c-0.06-0.026-0.106-0.062-0.171-0.083c-0.081-0.046-0.248-0.13-0.248-0.13
			c0,0.008-0.004,0.01-0.004,0.011c-1.187-0.43-2.639-0.341-3.474,0.159c-2.843,1.723-3.063,5.477,0.046,7.077
			c0.027,0.007,0,0.026-0.054,0.161c-6.538,19.17-7.866,36.889-1.324,54.7l0.049,0.038c0,0,0.021,0.103,0.068,0.265l-1.414,0.562
			c-1.196,0.602-2.163,1.897-2.248,2.926c-0.245,3.222,2.347,5.456,5.449,4.02L54.108,114.126z"/>
		<path fill="#AF8B18" d="M60.444,107.659c-0.958,0-1.728,0.776-1.728,1.741c0,0.96,0.771,1.743,1.728,1.743
			c0.972,0,1.756-0.783,1.756-1.743C62.201,108.436,61.416,107.659,60.444,107.659"/>
		<path fill="#AF8B18" d="M56.012,33.608c0.924,0.234,1.87-0.341,2.104-1.271c0.171-0.668-0.095-1.325-0.576-1.745
			c0.103,0.051,0.201,0.12,0.316,0.152c0.94,0.229,1.881-0.337,2.112-1.271c0.226-0.93-0.35-1.876-1.264-2.11
			c-0.938-0.23-1.887,0.337-2.118,1.27c-0.175,0.664,0.083,1.331,0.585,1.751c-0.112-0.054-0.197-0.127-0.315-0.152
			c-0.947-0.236-1.89,0.331-2.121,1.264C54.5,32.43,55.07,33.377,56.012,33.608"/>
		<path fill="#AF8B18" d="M58.655,35.829c-1.009-0.037-4.688,2.208-3.558,5.622c0.769,2.314,4.999,3.945,8.508,3.217
			c1.595,1.361,5.708,1.141,4.415,0.865c-1.263-0.262-3.481-0.659-2.894-3.063c0.574-2.707-1.305-2.286-1.623-2.083
			c-0.171,0.11-0.615,0.426-0.812,1.059c-1.309,0.984-3.552,1.024-5.026-0.592C55.875,38.912,58.047,36.27,58.655,35.829"/>
		<path fill="#AF8B18" d="M63.333,24.302c-0.018-0.413-0.077-0.666-0.077-0.666S63.269,23.898,63.333,24.302"/>
		<path fill="#AF8B18" d="M60.079,37.337c2.024,1.378,3.547,0.934,3.547,0.934c3.94-1.121,8.365-2.555,13.549-4.026l1.266-0.409
			c1.451-0.372,1.927,1.473,0.797,1.812c-1.511,0.452-3.288,1.043-4.592,1.494c-2.455,0.811-5.104,0.616-5.576,2.817
			c-0.477,2.196,2.342,2.362,2.342,2.362c-0.844,1.757-1.419,3.152-1.29,4.727c0.233,2.846,3.684,6.291,3.684,6.291
			c-1.913-2.835-1.581-7.62-0.508-10.299c0.018-0.02,0.018-0.047,0.034-0.069c0.019-0.049,0.035-0.083,0.056-0.134
			c0.247-0.584,0.911-1.819,2.457-2.878c1.155-0.81,2.332-1.467,4.523-2.057c3.958-1.127,2.017-7.588-2.764-6.256
			c-2.526,0.692-11.647,3.492-14.618,4.368c0,0-3.108-0.222-1.238-3.717c1.129-2.144,3.058-1.914,4.226-1.766
			c1.17,0.153,2.652,1.807,2.652,1.807s0.792-1.64-2.524-2.82c-1.957-0.705-2.586-3.83-2.77-5.216
			c0.051,1.201-0.156,3.781-2.711,5.866C58.208,32.205,58.069,35.961,60.079,37.337"/>
		<path fill="#AF8B18" d="M84.96,9.971c0.457-0.229,1.031-0.043,1.257,0.426c0.242,0.465,0.043,1.04-0.418,1.272
			c-0.474,0.229-1.039,0.039-1.28-0.428C84.295,10.771,84.478,10.204,84.96,9.971 M84.934,13.797
			c-0.122,0.566-0.783,1.133-1.284,1.288l0.163-0.012l11.458,22.962l-1.788,5.377l2.448,0.819l2.16-6.452L87.056,15.671
			c0,0-0.457-0.896,0.152-1.202c0.627-0.304,1.057,0.597,1.057,0.597l11.041,22.119l6.439,2.153l0.825-2.461l-5.374-1.799
			L89.74,12.115l0.08-0.095c-0.504,0.307-1.244,0.475-1.691,0.187c0.822-1.082,0.644-2.279,0.433-2.726
			c-1.762-3.525-7.944-0.498-6.177,3.063C82.618,12.993,83.19,13.789,84.934,13.797"/>
		<path fill="#AF8B18" d="M153.634,11.06l-0.041,0.092c-0.302,0.626-0.595,1.543-0.659,1.634
			c-16.056-5.568-31.026-6.651-45.912-3.186c0,0-4.889,1.611-7.129,0.112C115.94,3.502,135.055,4.565,153.634,11.06 M92.51,11.682
			c0.303,0.633,0.427,0.908,0.769,1.648c0,0,0.272,0.632,0.604,1.332c-0.084,0.136-0.175,0.25-0.26,0.405
			c-1.004,1.971,2.326,6.149,1.725,4.792c-0.537-1.181-1.52-3.208,0.779-4.138c2.522-1.127,1.1-2.402,0.732-2.533
			c-0.135-0.054-0.429-0.163-0.813-0.148c-0.65-0.596-1.312-2.175-2.373-4.476c-0.527-1.114,1.901-2.9,3.186-0.102
			c0.023,0.03,0.036,0.042,0.043,0.063c-0.014,0.011-0.034,0.011-0.054,0.026c1.431,6.474,10.523,3.104,10.523,3.104
			c13.608-3.165,28.443-2.449,43.386,2.729l1.342-0.279c0,0-0.697,0.851-0.971,1.524c-1.739,1.254-1.521,6.149-1.218,4.742
			c0.265-1.266,0.661-3.482,3.062-2.889c2.703,0.571,2.288-1.297,2.082-1.624c-0.071-0.111-0.237-0.353-0.536-0.559
			c-0.26-0.654,0.465-1.909,1.743-4.504c0.979-1.963,3.288-1.078,2.721,1.146l-0.09,0.215l-0.061-0.021l0.042,0.058l-0.363,0.837
			l-11.054,22.164l-5.368,1.799l0.817,2.456l6.434-2.153l11.045-22.114l0.872-2.312c0.022-0.054,0.052-0.111,0.072-0.174
			c0.052-0.088,0.133-0.25,0.133-0.25l-0.018-0.012c0.436-1.177,0.349-2.641-0.157-3.462c-1.719-2.848-5.473-3.063-7.067,0.043
			c-0.022,0.025-0.033-0.012-0.168-0.05c-19.169-6.55-36.888-7.872-54.7-1.332l-0.037,0.049c0,0-0.104,0.026-0.27,0.075
			l-0.557-1.415c-0.6-1.202-1.896-2.167-2.923-2.247c-3.219-0.249-5.453,2.347-4.019,5.451L92.51,11.682z"/>
		<path fill="#AF8B18" d="M95.51,18.031c0,0.959,0.772,1.747,1.733,1.747S99,18.99,99,18.031c0-0.966-0.795-1.745-1.756-1.745
			S95.51,17.065,95.51,18.031"/>
		<path fill="#AF8B18" d="M174.302,15.692c0.668,0.166,1.334-0.089,1.75-0.578c-0.047,0.104-0.118,0.205-0.152,0.319
			c-0.23,0.933,0.335,1.879,1.277,2.109c0.928,0.233,1.873-0.334,2.105-1.265c0.241-0.938-0.325-1.88-1.268-2.116
			c-0.666-0.167-1.337,0.086-1.747,0.583c0.047-0.11,0.116-0.199,0.146-0.319c0.239-0.934-0.332-1.881-1.27-2.111
			c-0.918-0.239-1.868,0.33-2.101,1.268C172.801,14.519,173.374,15.463,174.302,15.692"/>
		<path fill="#AF8B18" d="M182.338,20.911c0.428-0.025,0.668-0.074,0.668-0.074S182.744,20.852,182.338,20.911"/>
		<path fill="#AF8B18" d="M169.311,17.665c-1.386,2.007-0.936,3.535-0.936,3.535c1.13,3.945,2.552,8.367,4.03,13.553l0.406,1.273
			c0.373,1.456-1.464,1.916-1.814,0.782c-0.442-1.499-1.048-3.281-1.492-4.588c-0.808-2.453-0.611-5.097-2.815-5.576
			c-2.188-0.48-2.363,2.336-2.363,2.336c-1.752-0.834-3.151-1.42-4.728-1.28c-2.845,0.242-6.284,3.678-6.284,3.678
			c2.784-1.875,7.43-1.581,10.157-0.546c0,0,0.015,0.005,0.026,0.012c0.024,0.008,0.054,0.014,0.061,0.018
			c0.054,0.019,0.121,0.046,0.208,0.071c0,0.007,0,0.009,0.012,0.017c0.563,0.236,1.83,0.902,2.911,2.468
			c0.807,1.161,1.461,2.333,2.058,4.532c1.129,3.955,7.592,2.011,6.258-2.769c-0.704-2.525-3.491-11.647-4.361-14.618
			c0,0,0.215-3.102,3.704-1.242c2.155,1.133,1.922,3.071,1.768,4.233c-0.155,1.168-1.814,2.657-1.814,2.657s1.641,0.785,2.834-2.523
			c0.702-1.963,3.831-2.59,5.203-2.775c-1.193,0.053-3.773-0.165-5.856-2.712C174.438,15.785,170.687,15.647,169.311,17.665"/>
		<path fill="#AF8B18" d="M161.11,25.593c0.271-1.262,0.652-3.481,3.065-2.884c2.705,0.564,2.288-1.303,2.093-1.627
			c-0.111-0.169-0.441-0.613-1.065-0.816c-0.979-1.306-1.027-3.553,0.584-5.027c1.942-1.787,4.591,0.389,5.031,0.996
			c0.038-1.017-2.211-4.692-5.628-3.561c-2.31,0.768-3.935,4.993-3.209,8.501C160.617,22.781,160.839,26.9,161.11,25.593"/>
		<path fill="#AF8B18" d="M88.201,32.965c-2.041-0.842-5.927,2.829-4.632,2.111c1.131-0.626,3.069-1.775,4.188,0.437
			c1.317,2.37,2.429,0.954,2.59,0.55c0.754,0.798,1.696,1.725,3.015,1.881c-1.987-4.021-9.109-19.077-10.851-22.559
			c-0.703,0.35-1.41,0.698-2.113,1.036c1.883,3.841,5.793,12.18,7.956,16.622C88.303,33.014,88.265,32.993,88.201,32.965"/>
		<path fill="#AF8B18" d="M195.406,42.104c0.473-0.232,1.03-0.048,1.274,0.429c0.233,0.467,0.037,1.031-0.437,1.267
			c-0.46,0.227-1.032,0.041-1.261-0.427C194.747,42.898,194.938,42.335,195.406,42.104 M168.611,52.852l-5.374-1.799l-0.824,2.459
			l6.446,2.154l22.119-11.031c0,0,0.893-0.454,1.198,0.152c0.307,0.619-0.6,1.061-0.6,1.061l-22.113,11.031l-2.153,6.444l2.463,0.82
			l1.793-5.384l22.957-11.449l0.103,0.077c-0.312-0.498-0.475-1.233-0.175-1.68c1.074,0.816,2.267,0.645,2.718,0.423
			c3.529-1.756,0.489-7.932-3.071-6.17c-0.447,0.226-1.241,0.81-1.248,2.551c-0.566-0.114-1.143-0.785-1.29-1.284l0.018,0.167
			L168.611,52.852z"/>
		<path fill="#AF8B18" d="M195.581,111.206l-0.082-0.037c-0.636-0.311-1.546-0.597-1.646-0.659
			c5.578-16.045,6.662-31.042,3.192-45.912c0,0-1.606-4.89-0.108-7.131C203.152,73.521,202.084,92.622,195.581,111.206
			 M197.633,111.788c-0.023-0.009,0.004-0.025,0.06-0.167c6.542-19.163,7.86-36.88,1.325-54.691l-0.049-0.04
			c0,0-0.028-0.11-0.078-0.267l1.422-0.564c1.194-0.596,2.164-1.891,2.235-2.92c0.256-3.227-2.344-5.454-5.439-4.017l-2.144,0.977
			c-0.633,0.288-0.905,0.422-1.646,0.763c0,0-0.631,0.275-1.333,0.593c-0.122-0.083-0.257-0.164-0.408-0.247
			c-1.965-1.019-6.139,2.318-4.794,1.716c1.191-0.531,3.21-1.517,4.142,0.783c1.133,2.524,2.397,1.091,2.547,0.729
			c0.047-0.134,0.157-0.433,0.136-0.822c0.603-0.649,2.177-1.305,4.472-2.368c1.119-0.521,2.905,1.898,0.113,3.188
			c-0.031,0.013-0.044,0.032-0.066,0.041c-0.007-0.011-0.007-0.033-0.027-0.054c-6.476,1.432-3.106,10.525-3.106,10.525
			c3.169,13.613,2.45,28.449-2.726,43.396l0.278,1.324c0,0-0.85-0.685-1.527-0.959c-1.252-1.75-6.145-1.514-4.733-1.221
			c1.253,0.262,3.475,0.656,2.885,3.063c-0.569,2.704,1.298,2.289,1.622,2.079c0.113-0.074,0.351-0.239,0.56-0.53
			c0.651-0.256,1.918,0.453,4.505,1.742c1.96,0.979,1.067,3.288-1.148,2.725l-0.217-0.099l0.018-0.061l-0.054,0.047l-0.834-0.366
			v0.003l-22.167-11.056l-1.807-5.381l-2.45,0.821l2.156,6.444l22.112,11.036l2.317,0.874v-0.006
			c0.055,0.028,0.107,0.062,0.163,0.086c0.095,0.042,0.256,0.127,0.256,0.127c0-0.012,0.009-0.012,0.009-0.013
			c1.184,0.435,2.642,0.349,3.468-0.158C200.525,117.14,200.746,113.389,197.633,111.788"/>
		<path fill="#AF8B18" d="M188.605,56.568c0.978,0,1.757-0.777,1.757-1.75c0-0.957-0.779-1.739-1.757-1.739
			c-0.953,0-1.731,0.782-1.731,1.739C186.874,55.791,187.652,56.568,188.605,56.568"/>
		<path fill="#AF8B18" d="M193.064,130.613c-0.933-0.23-1.881,0.34-2.112,1.27c-0.169,0.665,0.088,1.334,0.582,1.748
			c-0.102-0.058-0.202-0.121-0.321-0.152c-0.933-0.231-1.875,0.337-2.113,1.27c-0.229,0.936,0.344,1.877,1.281,2.113
			c0.934,0.233,1.869-0.332,2.105-1.272c0.162-0.666-0.092-1.329-0.577-1.742c0.099,0.046,0.196,0.124,0.313,0.146
			c0.933,0.236,1.875-0.336,2.109-1.264C194.562,131.794,194,130.844,193.064,130.613"/>
		<path fill="#AF8B18" d="M190.418,128.395c1.015,0.033,4.689-2.209,3.562-5.618c-0.768-2.318-4.998-3.95-8.517-3.226
			c-1.604-1.356-5.707-1.131-4.399-0.861c1.248,0.268,3.464,0.657,2.879,3.062c-0.569,2.707,1.3,2.292,1.629,2.084
			c0.17-0.109,0.609-0.424,0.812-1.059c1.305-0.978,3.55-1.025,5.026,0.593C193.189,125.309,191.014,127.959,190.418,128.395"/>
		<path fill="#AF8B18" d="M185.742,139.917c0.016,0.414,0.071,0.673,0.071,0.673S185.792,140.328,185.742,139.917"/>
		<path fill="#AF8B18" d="M188.982,126.888c-2.005-1.38-3.538-0.936-3.538-0.936c-3.939,1.122-8.365,2.556-13.539,4.033l-1.27,0.403
			c-1.47,0.377-1.929-1.479-0.788-1.814c1.498-0.446,3.266-1.041,4.562-1.485h0.02c2.443-0.817,5.105-0.622,5.577-2.818
			c0.474-2.2-2.346-2.364-2.346-2.364c0.844-1.76,1.432-3.156,1.296-4.722c-0.25-2.852-3.676-6.294-3.676-6.294
			c1.904,2.827,1.567,7.615,0.484,10.293c-0.005,0.022-0.008,0.043-0.023,0.072c-0.021,0.045-0.035,0.083-0.055,0.132
			c-0.243,0.59-0.932,1.819-2.465,2.883c-1.154,0.805-2.328,1.459-4.525,2.05c-3.949,1.131-2.008,7.593,2.768,6.265
			c2.522-0.702,11.648-3.501,14.611-4.37c0,0,3.105,0.219,1.258,3.714c-1.142,2.151-3.08,1.918-4.237,1.762
			c-1.166-0.155-2.654-1.808-2.654-1.808s-0.788,1.638,2.52,2.827c1.959,0.703,2.588,3.824,2.78,5.207
			c-0.061-1.198,0.16-3.774,2.716-5.856C190.87,132.013,190.998,128.264,188.982,126.888"/>
		<path fill="#AF8B18" d="M173.679,45.781c0.854-2.046-2.82-5.934-2.104-4.627c0.616,1.126,1.78,3.065-0.442,4.184
			c-2.354,1.307-0.958,2.427-0.549,2.575c-0.787,0.773-1.724,1.713-1.877,3.019c4.005-1.979,19.07-9.108,22.559-10.849
			c-0.352-0.703-0.695-1.402-1.036-2.109c-3.846,1.884-12.186,5.799-16.624,7.959C173.628,45.878,173.649,45.84,173.679,45.781"/>
		<path fill="#AF8B18" d="M75.394,118.442c-0.851,2.044,2.82,5.937,2.104,4.63c-0.62-1.129-1.771-3.068,0.432-4.187
			c2.363-1.302,0.966-2.425,0.555-2.58c0.797-0.769,1.722-1.713,1.884-3.018c-4.023,1.985-19.083,9.113-22.565,10.847
			c0.35,0.711,0.7,1.407,1.041,2.118c3.838-1.885,12.177-5.801,16.624-7.967C75.441,118.348,75.416,118.382,75.394,118.442"/>
		<path fill="#AF8B18" d="M107.682,107.512c0,0-0.004,0.139-0.069,0.343C107.708,107.64,107.682,107.512,107.682,107.512"/>
		<path fill="#AF8B18" d="M99.122,65.254c0,0-0.123-0.005-0.341-0.052C99.007,65.29,99.122,65.254,99.122,65.254"/>
		<path fill="#AF8B18" d="M141.379,56.706c0,0,0.021-0.138,0.068-0.342C141.362,56.584,141.379,56.706,141.379,56.706"/>
		<path fill="#AF8B18" d="M149.945,98.961c0,0,0.137,0.011,0.331,0.062C150.06,98.938,149.945,98.961,149.945,98.961"/>
		<path fill="#AF8B18" d="M99.113,66.982l-10.125-5.062l-2.888,0.96l0.828,2.463l1.81-0.604l9.169,4.518
			c-1.909,3.885-2.999,8.241-2.999,12.855c0,4.226,0.911,8.238,2.505,11.875l2.354-1.184c-1.425-3.285-2.217-6.896-2.217-10.691
			c0-7.693,3.254-14.624,8.441-19.544l-1.249-2.433C102.541,62.117,100.643,64.431,99.113,66.982"/>
		<path fill="#AF8B18" d="M112.657,54.996l1.194,2.348c3.291-1.42,6.897-2.212,10.694-2.212c7.698,0,14.637,3.256,19.553,8.449
			l2.455-1.218c-1.976-2.214-4.292-4.106-6.835-5.646l5.013-10.162l-0.964-2.879l-2.46,0.824l0.603,1.807l-4.577,9.135
			c-3.87-1.873-8.195-2.952-12.787-2.952C120.318,52.49,116.31,53.394,112.657,54.996"/>
		<path fill="#AF8B18" d="M149.91,97.326l10.187,4.977l2.876-0.965l-0.822-2.452l-1.819,0.596l-9.11-4.599
			c1.865-3.872,2.936-8.19,2.936-12.771c0-4.206-0.89-8.192-2.476-11.818l-2.358,1.174c1.406,3.269,2.19,6.863,2.19,10.645
			c0,7.707-3.26,14.65-8.459,19.573l1.213,2.464C146.479,102.176,148.373,99.866,149.91,97.326"/>
		<path fill="#AF8B18" d="M136.332,109.274l-1.159-2.366c-3.265,1.407-6.852,2.185-10.628,2.185c-7.68,0-14.617-3.245-19.538-8.418
			l-2.451,1.233c2.021,2.227,4.361,4.152,6.949,5.693l-5.157,10.061l0.957,2.888l2.457-0.827l-0.605-1.81l4.66-9.097
			c3.856,1.857,8.179,2.928,12.729,2.928C128.735,111.744,132.713,110.853,136.332,109.274"/>
		<path fill="#AF8B18" d="M142.836,64.211c-4.642-4.757-11.134-7.724-18.295-7.724c-3.562,0-6.975,0.742-10.057,2.067l1.205,2.358
			c2.722-1.145,5.715-1.785,8.852-1.785c6.119,0,11.667,2.419,15.783,6.329L142.836,64.211z"/>
		<path fill="#AF8B18" d="M98.916,82.112c0,3.576,0.736,6.979,2.07,10.078l2.359-1.193c-1.148-2.731-1.789-5.734-1.789-8.885
			c0-6.124,2.416-11.684,6.341-15.811l-1.26-2.486C101.872,68.475,98.916,74.949,98.916,82.112"/>
		<path fill="#AF8B18" d="M106.264,100.04c4.659,4.737,11.123,7.693,18.275,7.693c3.564,0,6.954-0.729,10.021-2.046l-1.167-2.371
			c-2.721,1.141-5.718,1.774-8.854,1.774c-6.107,0-11.654-2.409-15.776-6.313L106.264,100.04z"/>
		<path fill="#AF8B18" d="M150.163,82.112c0-3.559-0.743-6.954-2.055-10.041l-2.366,1.177c1.141,2.732,1.773,5.722,1.773,8.864
			c0,6.117-2.41,11.671-6.332,15.791l1.244,2.518C147.193,95.763,150.163,89.283,150.163,82.112"/>
		<path fill="#AF8B18" d="M128.299,84.216l-0.003-0.008c-0.707,1.269-2.027,2.138-3.565,2.21l-0.025,0.012
			c-0.051,0-0.108,0.017-0.166,0.017c-0.104,0-0.197-0.029-0.299-0.038c-0.222-0.01-0.448-0.038-0.653-0.08
			c-0.079-0.016-0.141-0.054-0.217-0.073c-0.256-0.064-0.5-0.156-0.734-0.271c0,0-0.024-0.012-0.032-0.018
			c-1.418-0.71-2.4-2.162-2.4-3.854c0-0.083,0.025-0.173,0.027-0.256l-0.002-0.014c0.002-0.031,0.007-0.067,0.016-0.1
			c0.035-0.252,0.059-0.497,0.132-0.742c0.004-0.049,0.022-0.094,0.043-0.146c0.076-0.231,0.152-0.462,0.259-0.675
			c0.01-0.021,0.01-0.033,0.025-0.05c0.699-1.325,2.035-2.247,3.625-2.323l0.013-0.007c0.068-0.003,0.14-0.023,0.197-0.023
			c0.123,0,0.259,0.033,0.379,0.047c0.19,0.019,0.377,0.029,0.551,0.069c0.098,0.027,0.188,0.059,0.278,0.088
			c0.226,0.062,0.451,0.151,0.657,0.25c0.016,0.007,0.037,0.01,0.063,0.026l-0.008,0.002c0.843,0.424,1.531,1.116,1.954,1.971
			c0.007,0.01,0.017,0.027,0.017,0.043c0.103,0.197,0.176,0.419,0.243,0.641c0.002,0.05,0.033,0.107,0.047,0.163
			c0.055,0.226,0.085,0.466,0.111,0.708c0,0.038,0.008,0.077,0.017,0.113l-0.009,0.014c0,0.066,0.017,0.128,0.017,0.201v0.003
			l0.008,0.014c0,0.057-0.016,0.103-0.024,0.155c-0.008,0.296-0.05,0.587-0.119,0.86c-0.027,0.066-0.047,0.137-0.073,0.203
			c-0.075,0.285-0.188,0.557-0.328,0.816C128.309,84.175,128.309,84.196,128.299,84.216 M160.201,61.498l-31.347,15.563
			c-0.395-0.332-0.823-0.622-1.291-0.867l32.032-15.905l0.976-2.887l-2.471-0.815l-0.601,1.812l-34.298,17.177
			c-0.542,0.104-1.048,0.299-1.534,0.535L106.742,46.2l0.599-1.813l-2.458-0.829l-0.966,2.884l15.604,31.309
			c-0.301,0.349-0.564,0.724-0.796,1.127L102.703,47.05l-2.874-0.961l-0.822,2.454l1.8,0.606l17.165,34
			c0.098,0.676,0.311,1.304,0.605,1.891L88.611,99.907l-1.802-0.603l-0.816,2.461l2.873,0.958l31.341-15.569
			c0.399,0.338,0.828,0.63,1.305,0.866L89.47,103.937l-0.968,2.882l2.472,0.821l0.591-1.807l35.082-17.422
			c0.229-0.075,0.46-0.156,0.678-0.259l15.011,29.875l-0.61,1.812l2.47,0.823l0.961-2.877l-15.688-31.229
			c0.368-0.406,0.674-0.852,0.94-1.344l15.961,31.963l2.881,0.964l0.808-2.459l-2.384-1.762l-16.666-33.377
			c-0.129-0.473-0.288-0.924-0.506-1.353l29.951-14.878l1.812,0.61l0.814-2.467L160.201,61.498z"/>
		<path fill="#AF8B18" d="M92.903,130.826c1.157-1.002,2.438-3.487,3.808-7.44c1.389-3.965,3.236-7.9,5.976-7.964
			c-1.188,0.025-3.847,0.354-5.17,1.488c-1.85,1.604-2.45,3.669-1.765,6.183c-0.042-0.222-0.179-0.452-0.383-0.686
			c-1.337-1.55-2.802-1.445-4.239-0.739c-1.175,0.58-1.75,1.932-1.553,3.109c1.487-1.417,3.38-1.642,4.251-0.632
			c1.536,1.782,0.391,6.687-2.626,7.357c-2.998,0.671-3.555-1.414-3.756-1.823c0.291,0.236,0.656,0.393,1.057,0.393
			c0.967,0,1.75-0.775,1.75-1.743c0-0.958-0.783-1.744-1.75-1.744c-0.081,0-0.161,0.035-0.239,0.052h-0.004
			c-0.434,0.063-0.814,0.271-1.069,0.594c-1.04,0.949-1.151,2.688-0.089,3.924C88.647,132.937,91.044,132.419,92.903,130.826"/>
		<path fill="#AF8B18" d="M67.842,142.11c0.051,0,0.107-0.015,0.157-0.017c0.041,0.002,0.063,0.011,0.108,0.017
			c-0.035,0-0.068-0.009-0.108-0.017c2.684-0.185,3.447-3.357,1.86-10.962c-1.036-5.016,2.746-8.462,2.746-8.462
			s-6.99,2.236-3.393,10.116c2.072,4.56,1.284,6.955,0.249,8.172c0.072-0.184,0.118-0.38,0.118-0.592
			c0-0.96-0.764-1.746-1.736-1.746c-0.953,0-1.745,0.786-1.745,1.746c0,0.627,0.354,1.147,0.841,1.453
			c-0.579-0.185-1.239-0.457-1.766-0.798c-1.016-0.674-1.559-1.221-1.836-1.932c-0.908-2.31-0.038-4.139,2.032-3.956
			c0.825,0.009,1.557,0.38,2.193,1.131c0.643-1.882-0.764-3.293-2.014-3.193c-0.693,0.051-1.381,0.286-2.075,1.066
			c0.609-1.408,0.332-4.329-0.503-5.413c-0.847-1.074-1.708-1.692-2.596-1.843c0.74,1.038,1.062,2.821,0.974,5.344
			c-0.086,2.528,0.097,4.37,0.553,5.522c0.777,1.961,2.301,3.717,5.298,4.237C67.408,142.056,67.616,142.11,67.842,142.11"/>
		<path fill="#AF8B18" d="M81.922,127.438c1.331,4.296,6.581,4.771,6.581,4.771s-2.397-0.412-4.093-2.137
			c-1.605-1.627-2.615-4.296-1.49-6.914c0.301,0.23,0.647,0.39,1.057,0.39c0.961,0,1.745-0.773,1.745-1.74
			c0-0.97-0.783-1.744-1.745-1.744c-0.307,0-0.571,0.091-0.818,0.23l-0.005-0.018C83.154,120.276,80.165,121.751,81.922,127.438"/>
		<path fill="#AF8B18" d="M94.998,113.415c-0.903,2.125-0.203,4.095-0.06,4.575c-0.046-0.55,0.103-3.095,2.288-4.201
			c0.529-0.265,1.234-0.535,1.962-0.803c1.407-0.273,3.335-0.76,5.158-1.645c2.478-1.194,3.106-2.79,3.267-3.487
			c-0.16,0.406-0.717,1.127-2.647,1.989c-0.01,0.006-0.023,0.015-0.032,0.021c-0.062,0.027-0.156,0.063-0.222,0.091
			c-1.051,0.373-2.861,0.655-4.39-0.999c-0.645-0.83-0.802-1.613-0.739-2.281c0.245,0.665,0.87,1.154,1.631,1.154
			c0.957,0,1.738-0.78,1.738-1.748c0-0.961-0.781-1.742-1.738-1.742c-0.157,0-0.293,0.05-0.442,0.093
			c0.052-0.052,0.082-0.074,0.082-0.074c-0.053,0.022-0.1,0.06-0.155,0.089c-0.288,0.09-0.551,0.238-0.753,0.451
			c-3.019,2.11-1.785,5.281,0.929,5.927C98.074,111.056,96.05,110.93,94.998,113.415"/>
		<path fill="#AF8B18" d="M64.552,25.576c0.181,2.681,3.354,3.441,10.967,1.858c5.01-1.037,8.448,2.742,8.448,2.742
			s-2.231-6.982-10.096-3.393c-4.568,2.071-6.961,1.288-8.174,0.259c0.175,0.072,0.375,0.12,0.582,0.12
			c0.973,0,1.744-0.772,1.744-1.74c0-0.965-0.771-1.748-1.744-1.748c-0.625,0-1.153,0.349-1.456,0.847
			c0.189-0.58,0.466-1.249,0.803-1.771c0.673-1.018,1.217-1.555,1.937-1.834c2.296-0.912,4.127-0.045,3.95,2.022
			c-0.007,0.832-0.381,1.565-1.127,2.189c1.877,0.649,3.287-0.752,3.208-2.001c-0.064-0.689-0.31-1.384-1.081-2.073
			c1.405,0.608,4.333,0.328,5.403-0.513c1.088-0.84,1.697-1.705,1.851-2.59c-1.035,0.737-2.825,1.068-5.336,0.978
			c-2.536-0.083-4.375,0.099-5.521,0.554c-1.977,0.769-3.732,2.293-4.238,5.302c-0.08,0.198-0.131,0.412-0.131,0.638
			C64.539,25.48,64.552,25.528,64.552,25.576c0,0.036-0.013,0.069-0.013,0.102C64.539,25.657,64.547,25.614,64.552,25.576"/>
		<path fill="#AF8B18" d="M181.228,22.113c-0.053,0.003-0.101,0.013-0.148,0.013c-0.041,0-0.073-0.01-0.111-0.013
			c0.023,0.003,0.07,0.013,0.111,0.013c-2.688,0.188-3.454,3.358-1.87,10.968c1.041,5.014-2.735,8.465-2.735,8.465
			s6.978-2.237,3.396-10.118c-2.078-4.555-1.292-6.956-0.271-8.177c-0.063,0.186-0.115,0.39-0.115,0.596
			c0,0.958,0.771,1.742,1.744,1.742c0.968,0,1.746-0.784,1.746-1.742c0-0.627-0.347-1.146-0.848-1.457
			c0.578,0.183,1.248,0.456,1.78,0.801c1.013,0.675,1.538,1.218,1.836,1.936c0.894,2.296,0.038,4.134-2.033,3.951
			c-0.831-0.009-1.568-0.382-2.193-1.139c-0.646,1.887,0.766,3.298,2.016,3.202c0.68-0.049,1.375-0.293,2.055-1.064
			c-0.602,1.405-0.322,4.324,0.514,5.407c0.853,1.084,1.702,1.698,2.597,1.846c-0.729-1.04-1.059-2.819-0.98-5.347
			c0.083-2.527-0.095-4.364-0.553-5.515c-0.771-1.965-2.29-3.723-5.302-4.238C181.664,22.166,181.443,22.113,181.228,22.113"/>
		<path fill="#AF8B18" d="M184.515,138.646c-0.179-2.68-3.356-3.446-10.961-1.86c-5.016,1.04-8.451-2.74-8.451-2.74
			s2.227,6.981,10.101,3.399c4.558-2.079,6.962-1.292,8.17-0.271c-0.181-0.062-0.37-0.115-0.584-0.115
			c-0.956,0-1.745,0.784-1.745,1.742c0,0.965,0.789,1.744,1.745,1.744c0.632,0,1.143-0.345,1.459-0.846
			c-0.192,0.578-0.46,1.25-0.812,1.771c-0.668,1.021-1.199,1.556-1.929,1.84c-2.299,0.907-4.131,0.044-3.941-2.023
			c0-0.835,0.368-1.564,1.121-2.191c-1.887-0.651-3.295,0.754-3.2,2.007c0.062,0.688,0.292,1.376,1.075,2.068
			c-1.418-0.608-4.336-0.329-5.414,0.512c-1.084,0.844-1.698,1.704-1.837,2.592c1.034-0.74,2.813-1.061,5.34-0.979
			c2.532,0.083,4.37-0.098,5.512-0.56c1.966-0.766,3.728-2.291,4.241-5.297c0.082-0.195,0.124-0.409,0.124-0.637
			c0-0.057-0.006-0.102-0.014-0.152c0.008-0.038,0.014-0.071,0.014-0.109C184.528,138.569,184.522,138.611,184.515,138.646"/>
		<path fill="#AF8B18" d="M75.819,50.479c1.01,1.158,3.49,2.433,7.445,3.813c3.965,1.383,7.898,3.234,7.956,5.964
			c-0.027-1.181-0.353-3.841-1.48-5.158c-1.611-1.86-3.669-2.445-6.185-1.761c0.227-0.059,0.451-0.188,0.687-0.393
			c1.546-1.329,1.434-2.799,0.74-4.224c-0.587-1.183-1.939-1.769-3.113-1.565c1.416,1.483,1.639,3.386,0.629,4.248
			c-1.788,1.54-6.683,0.396-7.36-2.627c-0.664-2.98,1.419-3.558,1.833-3.756c-0.235,0.301-0.393,0.657-0.393,1.068
			c0,0.96,0.78,1.738,1.736,1.738c0.967,0,1.748-0.778,1.748-1.738c0-0.094-0.042-0.172-0.05-0.25
			c-0.069-0.437-0.273-0.809-0.589-1.074c-0.961-1.036-2.7-1.149-3.939-0.079C73.708,46.218,74.235,48.623,75.819,50.479"/>
		<path fill="#AF8B18" d="M79.202,39.505c-4.284,1.321-4.765,6.585-4.765,6.585s0.417-2.402,2.141-4.105
			c1.623-1.603,4.302-2.613,6.912-1.489c-0.233,0.298-0.394,0.657-0.394,1.062c0,0.962,0.788,1.742,1.741,1.742
			c0.966,0,1.748-0.78,1.748-1.742c0-0.302-0.091-0.571-0.232-0.819l0.013-0.006C86.365,40.731,84.9,37.749,79.202,39.505"/>
		<path fill="#AF8B18" d="M92.855,54.797c0.261,0.532,0.534,1.233,0.806,1.966c0.259,1.407,0.757,3.334,1.644,5.158
			c1.195,2.479,2.794,3.116,3.475,3.281c-0.401-0.165-1.117-0.732-1.985-2.663c-0.004-0.01-0.004-0.01-0.013-0.021
			c-0.03-0.069-0.06-0.165-0.089-0.229c-0.378-1.049-0.665-2.869,0.997-4.386c0.863-0.656,1.657-0.811,2.33-0.73
			c-0.703,0.224-1.218,0.863-1.218,1.637c0,0.969,0.771,1.745,1.746,1.745c0.968,0,1.74-0.776,1.74-1.745
			c0-0.175-0.043-0.329-0.089-0.483c0.058,0.062,0.089,0.107,0.089,0.107c-0.036-0.077-0.083-0.136-0.114-0.214
			c-0.048-0.136-0.121-0.254-0.214-0.373c-2.096-3.427-5.478-2.198-6.137,0.604c-0.234-2.797-0.108-4.828-2.599-5.88
			c-2.122-0.898-4.081-0.203-4.575-0.06C89.194,52.461,91.744,52.609,92.855,54.797"/>
		<path fill="#AF8B18" d="M156.166,33.403c-1.162,0.999-2.423,3.484-3.812,7.441c-1.379,3.955-3.23,7.896-5.974,7.963
			c1.192-0.033,3.854-0.36,5.17-1.498c1.854-1.602,2.443-3.663,1.771-6.18c0.043,0.228,0.182,0.451,0.376,0.687
			c1.332,1.551,2.803,1.442,4.24,0.739c1.18-0.576,1.76-1.93,1.548-3.106c-1.476,1.422-3.387,1.639-4.247,0.629
			c-1.532-1.782-0.398-6.681,2.632-7.36c2.98-0.665,3.553,1.414,3.758,1.829c-0.3-0.235-0.655-0.398-1.072-0.398
			c-0.96,0-1.738,0.778-1.738,1.743c0,0.967,0.778,1.747,1.738,1.747c0.101,0,0.165-0.039,0.258-0.052
			c0.434-0.064,0.814-0.27,1.068-0.593c1.026-0.95,1.151-2.688,0.084-3.928C160.426,31.287,158.037,31.812,156.166,33.403"/>
		<path fill="#AF8B18" d="M167.144,36.785c-1.322-4.29-6.588-4.768-6.588-4.768s2.412,0.412,4.105,2.132
			c1.607,1.63,2.609,4.301,1.496,6.919c-0.306-0.236-0.66-0.392-1.055-0.392c-0.979,0-1.754,0.774-1.754,1.743
			c0,0.96,0.774,1.744,1.754,1.744c0.291,0,0.565-0.099,0.808-0.23v0.011C165.91,43.944,168.894,42.483,167.144,36.785"/>
		<path fill="#AF8B18" d="M154.076,50.804c0.894-2.125,0.204-4.088,0.051-4.571c0.059,0.548-0.081,3.095-2.279,4.202
			c-0.53,0.271-1.242,0.539-1.963,0.805c-1.4,0.271-3.33,0.761-5.152,1.638c-2.485,1.201-3.127,2.803-3.284,3.487
			c0.157-0.415,0.799-1.189,2.933-2.104c1.044-0.37,2.846-0.636,4.365,1.01c0.739,0.97,0.836,1.866,0.679,2.608
			c-0.129-0.833-0.814-1.483-1.691-1.483c-0.961,0-1.741,0.778-1.741,1.745c0,0.965,0.78,1.742,1.741,1.742
			c0.209,0,0.403-0.053,0.587-0.116c-0.062,0.063-0.114,0.1-0.114,0.1c4.158-2.055,2.942-5.766-0.017-6.472
			C150.992,53.167,153.027,53.288,154.076,50.804"/>
		<path fill="#AF8B18" d="M173.25,113.746c-1.003-1.163-3.489-2.433-7.453-3.812c-3.956-1.384-7.888-3.235-7.951-5.969
			c0.024,1.184,0.352,3.848,1.485,5.157c1.606,1.859,3.663,2.45,6.188,1.769c-0.228,0.051-0.459,0.181-0.679,0.387
			c-1.564,1.334-1.461,2.797-0.757,4.231c0.584,1.178,1.943,1.762,3.114,1.558c-1.42-1.475-1.632-3.381-0.632-4.247
			c1.781-1.539,6.684-0.387,7.356,2.625c0.672,2.979-1.419,3.56-1.823,3.758c0.234-0.296,0.396-0.66,0.396-1.062
			c0-0.964-0.779-1.744-1.735-1.744c-0.964,0-1.756,0.78-1.756,1.744c0,0.083,0.042,0.164,0.05,0.242v0.012
			c0.075,0.43,0.273,0.803,0.593,1.064c0.95,1.041,2.706,1.152,3.922,0.078C175.361,118.002,174.839,115.601,173.25,113.746"/>
		<path fill="#AF8B18" d="M169.865,124.722c4.295-1.324,4.768-6.582,4.768-6.582s-0.406,2.398-2.137,4.1
			c-1.632,1.603-4.301,2.615-6.927,1.486c0.245-0.293,0.396-0.65,0.396-1.06c0-0.962-0.774-1.744-1.732-1.744
			c-0.966,0-1.751,0.782-1.751,1.744c0,0.302,0.101,0.572,0.229,0.821l-0.016,0.005
			C162.696,123.492,164.166,126.473,169.865,124.722"/>
		<path fill="#AF8B18" d="M156.217,109.425c-0.272-0.527-0.542-1.233-0.812-1.959c-0.259-1.407-0.749-3.34-1.637-5.165
			c-1.2-2.477-2.793-3.115-3.491-3.278c0.403,0.163,1.125,0.731,1.993,2.654c0.005,0.009,0.02,0.018,0.02,0.029
			c0.021,0.079,0.064,0.164,0.095,0.238c0.376,1.044,0.651,2.858-0.996,4.37c-0.92,0.702-1.764,0.835-2.475,0.717
			c0.769-0.184,1.345-0.837,1.345-1.661c0-0.962-0.791-1.744-1.757-1.744c-0.947,0-1.743,0.782-1.743,1.744
			c0,0.19,0.052,0.352,0.114,0.521c-0.066-0.058-0.085-0.105-0.085-0.105c0.019,0.077,0.069,0.132,0.105,0.195
			c0.031,0.108,0.09,0.193,0.152,0.282c2.099,3.562,5.531,2.338,6.199-0.489c0.237,2.799,0.116,4.826,2.603,5.882
			c2.121,0.896,4.095,0.199,4.567,0.056C159.88,111.763,157.32,111.612,156.217,109.425"/>
		<path fill="#AF8B18" d="M119.97,99.329c-1.394-1.928-2.214-2.271-3.187-2.604c-2.385-0.788-5.582,0.765-5.582,0.765
			s2.611-1.253,5.842,1.802c2.901,2.733,5.418,3.168,7.979,2.711c3.596-0.701,3.948-2.879,3.785-4.241
			c0-0.033,0.025-0.062,0.025-0.087c0-0.281-0.085-0.543-0.209-0.774c-0.047-0.165-0.091-0.273-0.091-0.273s0.015,0.084,0.044,0.198
			c-0.294-0.527-0.839-0.902-1.49-0.902c-0.958,0-1.75,0.78-1.75,1.752c0,0.958,0.792,1.734,1.75,1.734
			c0.689,0,1.284-0.417,1.562-1.005c-0.071,0.595-0.277,1.239-0.781,1.762c-0.771,0.819-2.82,1.331-4.456,0.942
			c-3.173-0.76-1.441-8.005-1.441-8.005c-1.337,1.272-2.384,2.603-1.938,4.889c0.435,2.272,2.471,3.014,2.471,3.014
			S120.965,100.711,119.97,99.329"/>
		<path fill="#AF8B18" d="M104.475,82.37c0.713,3.596,2.883,3.943,4.25,3.78c0.03,0,0.052,0.017,0.095,0.017
			c0.272,0,0.524-0.078,0.757-0.195c0.163-0.049,0.267-0.094,0.267-0.094s-0.08,0.023-0.195,0.045
			c0.537-0.295,0.909-0.844,0.909-1.497c0-0.966-0.776-1.742-1.738-1.742c-0.959,0-1.747,0.776-1.747,1.742
			c0,0.695,0.412,1.291,1.003,1.562c-0.591-0.07-1.236-0.276-1.763-0.772c-0.82-0.774-1.328-2.83-0.949-4.462
			c0.772-3.175,8.021-1.446,8.021-1.446c-1.281-1.331-2.611-2.374-4.885-1.935c-2.279,0.435-3.028,2.466-3.028,2.466
			s0.294-1.54,1.685-2.524c1.935-1.396,2.271-2.216,2.599-3.192c0.802-2.378-0.771-5.582-0.771-5.582s1.261,2.611-1.801,5.849
			C104.445,77.283,104.022,79.799,104.475,82.37"/>
		<path fill="#AF8B18" d="M129.168,64.503c1.398,1.924,2.215,2.264,3.2,2.59c2.37,0.795,5.569-0.766,5.569-0.766
			s-2.606,1.261-5.837-1.796c-2.902-2.742-5.415-3.166-7.996-2.706c-3.583,0.699-3.931,2.878-3.773,4.235
			c0,0.033-0.02,0.065-0.02,0.086c0,0.288,0.088,0.544,0.199,0.774c0.047,0.168,0.093,0.277,0.093,0.277s-0.024-0.09-0.046-0.205
			c0.301,0.537,0.848,0.906,1.503,0.906c0.966,0,1.742-0.779,1.742-1.753c0-0.957-0.776-1.736-1.742-1.736
			c-0.699,0-1.292,0.421-1.564,1.007c0.061-0.597,0.272-1.235,0.772-1.758c0.773-0.819,2.818-1.336,4.458-0.945
			c3.179,0.756,1.445,8.014,1.445,8.014c1.328-1.28,2.376-2.607,1.937-4.892c-0.434-2.278-2.461-3.021-2.461-3.021
			S128.178,63.108,129.168,64.503"/>
		<path fill="#AF8B18" d="M144.654,81.457c-0.699-3.592-2.87-3.938-4.23-3.785c-0.036,0-0.057-0.019-0.101-0.019
			c-0.28,0-0.526,0.086-0.767,0.194c-0.163,0.058-0.273,0.095-0.273,0.095s0.096-0.018,0.205-0.039
			c-0.525,0.301-0.912,0.839-0.912,1.5c0,0.961,0.789,1.742,1.747,1.742c0.972,0,1.753-0.781,1.753-1.742
			c0-0.704-0.42-1.296-1.013-1.573c0.593,0.075,1.234,0.282,1.756,0.782c0.82,0.774,1.332,2.826,0.949,4.456
			c-0.754,3.174-8.008,1.446-8.008,1.446c1.271,1.333,2.603,2.376,4.891,1.935c2.269-0.432,3.012-2.467,3.012-2.467
			s-0.29,1.542-1.679,2.525c-1.934,1.396-2.267,2.217-2.597,3.195c-0.807,2.383,0.766,5.583,0.766,5.583s-1.261-2.614,1.801-5.852
			C144.697,86.543,145.114,84.029,144.654,81.457"/>
		<path fill="#AF8B18" d="M127.021,82.112c0-1.372-1.11-2.479-2.487-2.479c-1.37,0-2.482,1.106-2.482,2.479
			c0,1.368,1.112,2.485,2.482,2.485C125.91,84.598,127.021,83.48,127.021,82.112"/>
	</g>
	<polygon fill="#AF8B18" points="137.61,45.208 147.226,41.984 146.226,38.992 143.168,40.03 143.382,40.698 139.857,41.884 
		137.387,34.646 134.369,35.644 	"/>
	<polygon fill="#AF8B18" points="142.67,40.408 141.439,36.685 145.066,35.438 144.059,32.334 137.91,34.391 140.195,41.236 	"/>
	<polygon fill="#AF8B18" points="96.05,48.126 88.745,45.645 87.729,48.674 97.346,51.919 100.569,42.293 97.571,41.294 
		96.558,44.364 97.226,44.59 	"/>
	<polygon fill="#AF8B18" points="94.032,40.087 90.956,39.026 88.896,45.177 95.74,47.461 96.561,44.982 92.842,43.735 	"/>
	<polygon fill="#AF8B18" points="102.419,38.879 101.421,41.872 111.038,45.089 114.276,35.471 111.246,34.45 108.781,41.771 
		105.254,40.576 105.477,39.91 	"/>
	<polygon fill="#AF8B18" points="104.586,32.22 103.586,35.323 107.205,36.566 105.961,40.292 108.448,41.115 110.734,34.275 	"/>
	<polygon fill="#AF8B18" points="161.44,95.181 164.659,104.806 167.668,103.802 166.627,100.75 165.95,100.973 164.767,97.443 
		172.004,94.967 171.007,91.949 	"/>
	<polygon fill="#AF8B18" points="166.235,100.258 169.967,99.019 171.206,102.641 174.32,101.641 172.247,95.489 165.405,97.777 	
		"/>
	<polygon fill="#AF8B18" points="158.525,53.627 160.994,46.327 157.969,45.308 154.731,54.925 164.343,58.144 165.354,55.15 
		162.291,54.133 162.062,54.802 	"/>
	<polygon fill="#AF8B18" points="166.563,51.612 167.618,48.523 161.481,46.47 159.181,53.317 161.669,54.139 162.909,50.423 	"/>
	<polygon fill="#AF8B18" points="167.769,59.995 164.773,58.992 161.566,68.62 171.176,71.851 172.199,68.826 164.882,66.36 
		166.07,62.825 166.729,63.053 	"/>
	<polygon fill="#AF8B18" points="174.43,62.162 171.315,61.16 170.082,64.78 166.354,63.547 165.528,66.023 172.381,68.313 	"/>
	<polygon fill="#AF8B18" points="111.464,119.021 101.838,122.239 102.846,125.231 105.891,124.204 105.672,123.53 109.21,122.336 
		111.683,129.58 114.688,128.583 	"/>
	<polygon fill="#AF8B18" points="106.392,123.81 107.626,127.541 104.005,128.785 105.007,131.892 111.156,129.833 108.874,122.991 
			"/>
	<polygon fill="#AF8B18" points="153.015,116.102 160.322,118.581 161.35,115.546 151.72,112.304 148.501,121.933 151.494,122.932 
		152.509,119.867 151.848,119.643 	"/>
	<polygon fill="#AF8B18" points="155.039,124.135 158.123,125.2 160.188,119.053 153.327,116.758 152.504,119.243 156.222,120.493 	
		"/>
	<polygon fill="#AF8B18" points="146.658,125.35 147.652,122.35 138.029,119.136 134.799,128.756 137.818,129.781 140.279,122.453 
		143.82,123.647 143.594,124.311 	"/>
	<polygon fill="#AF8B18" points="144.488,132.001 145.494,128.9 141.87,127.658 143.101,123.936 140.615,123.107 138.336,129.948 	
		"/>
	<polygon fill="#AF8B18" points="87.635,69.041 84.411,59.415 81.407,60.417 82.438,63.476 83.115,63.255 84.304,66.791 
		77.065,69.257 78.069,72.272 	"/>
	<polygon fill="#AF8B18" points="82.839,63.969 79.109,65.208 77.869,61.586 74.766,62.585 76.805,68.735 83.651,66.446 	"/>
	<polygon fill="#AF8B18" points="90.547,110.594 88.064,117.901 91.096,118.921 94.342,109.301 84.723,106.081 83.707,109.073 
		86.778,110.092 87.008,109.425 	"/>
	<polygon fill="#AF8B18" points="82.511,112.614 81.446,115.7 87.592,117.757 89.878,110.91 87.409,110.08 86.16,113.807 	"/>
	<polygon fill="#AF8B18" points="81.303,104.232 84.295,105.227 87.503,95.605 77.886,92.378 76.866,95.396 84.197,97.86 
		82.991,101.398 82.336,101.17 	"/>
	<polygon fill="#AF8B18" points="74.645,102.062 77.742,103.069 78.984,99.442 82.726,100.681 83.545,98.201 76.698,95.91 	"/>
</g>
</svg>
